<svg viewBox="0 0 131.15775 135.69345" style="stroke-width:0.26458332; fill:#fff">
  <g transform="translate(-43.089287,-52.449406)">
    <rect
       id="rect42"
       width="96.383926"
       height="94.872025"
       x="60.854156"
       y="72.860115"
       style="fill:#000000"
       ry="24.946428" />
  </g>
  <path d="m 58.893272,37.095788 c -0.0898,-1.04439 -0.179432,-2.088406 -0.245139,-3.134664 -0.03647,-0.667801 -0.08662,-1.337718 0.01712,-2.001377 0.03874,-0.299252 0.188177,-0.53004 0.393239,-0.739929 1.908003,-1.057148 2.375355,-1.961481 2.738747,-0.139819 0.172014,1.673479 0.149575,3.362995 0.182949,5.043837 0.04055,4.111106 0.16686,8.220194 0.344287,12.327472 0.251274,5.259285 0.506171,10.518085 0.837713,15.772998 0.231307,3.623684 0.410996,7.250539 0.58202,10.877514 0.09142,1.627079 0.20616,3.252708 0.297749,4.879779 -0.02862,0.01291 0.07087,0.806641 0.05101,0.816189 -2.193271,1.054767 -2.257107,1.71581 -2.094045,0.776984 0.06321,-0.320707 0.03034,-0.155784 0.09871,-0.494745 0,0 2.140855,-1.040093 2.140855,-1.040093 v 0 c -0.06129,0.335354 -0.02956,0.174932 -0.09409,0.481479 -0.124703,0.993272 0.02098,0.226115 -2.188646,1.376698 -0.02045,0.01064 0.0011,-0.04608 0.0013,-0.06913 0.0011,-0.145921 -2.65e-4,-0.260472 -0.0028,-0.411882 -0.0019,-0.119084 -0.0046,-0.238155 -0.0069,-0.35723 -0.04519,-1.643978 -0.133692,-3.286192 -0.202457,-4.929273 C 61.624495,72.48577 61.478238,68.841339 61.275115,65.200145 60.973546,59.9407 60.737196,54.677994 60.449271,49.417828 60.243581,45.3325 60.077608,41.245431 59.967658,37.156343 c -0.05955,-1.652844 -0.0723,-3.314247 -0.260157,-4.958321 -0.05207,-0.251883 -0.05817,-0.340704 -0.143867,-0.566311 -0.01992,-0.05242 -0.0487,-0.152308 -0.124857,-0.163121 -0.03101,-0.0044 -0.119634,0.03093 -0.0928,0.01476 0.643932,-0.387977 1.299837,-0.75573 1.949754,-1.133592 -0.247184,0.08165 -0.421875,0.3252 -0.485928,0.568881 -0.153152,0.643564 -0.08918,1.306576 -0.06903,1.961682 0.0493,1.04282 0.122489,2.085263 0.265041,3.120011 0,0 -2.112571,1.095455 -2.112571,1.095455 z" />
  <path d="m 68.557568,29.9328 c -0.234437,1.645177 -0.300752,3.312263 -0.379217,4.970981 -0.156506,3.810625 -0.254548,7.62258 -0.280599,11.436271 -0.02983,5.344245 0.211135,10.681748 0.56619,16.012449 0.309243,4.287539 0.777896,8.560348 1.277435,12.82908 0.222504,1.940867 0.472826,3.878286 0.687978,5.820005 0.06806,0.268113 0.02595,0.547489 0.06207,0.817399 0,0 -2.213367,0.947542 -2.213367,0.947542 v 0 c 0.01752,0.01029 0.03781,0.04489 0.05256,0.03091 0.0959,-0.09087 0.0019,-0.638151 0.01471,-0.709838 C 68.201658,80.123201 67.970846,78.167121 67.783,76.206717 67.336994,71.915109 66.898471,67.622334 66.600529,63.31727 66.261368,57.986087 66.011988,52.649886 65.999759,47.306496 c -0.0058,-3.794832 0.05454,-7.588732 0.155892,-11.382211 0.05319,-1.649201 0.110651,-3.300783 0.260218,-4.94442 0,0 2.141701,-1.047065 2.141701,-1.047065 z"/>
  <path d="m 68.109779,90.781737 c -0.628473,-0.264033 -1.299366,-0.392789 -1.972786,-0.473778 -0.706549,-0.09151 -1.241457,-0.07878 -1.902746,0.19899 -1.148432,0.656384 1.07805,-0.61777 1.392288,-0.769416 0.124232,-0.05995 -0.214297,0.174855 -0.309624,0.274558 -0.339944,0.355566 -0.570362,0.777552 -0.796499,1.20863 -0.522949,1.195573 -0.53567,2.232443 -0.396893,3.503774 0.169304,0.916376 0.485415,1.861034 1.088874,2.59152 0.105156,0.127288 0.230809,0.236151 0.346213,0.354226 0.599011,0.492715 1.33954,0.855322 2.128356,0.884225 0.157384,0.0058 0.314613,-0.01524 0.471921,-0.02289 0.45589,-0.09814 0.4812,-0.08273 0.918464,-0.262107 0.156027,-0.064 0.603046,-0.300556 0.458901,-0.213018 -3.537908,2.148509 -1.524026,0.891709 -1.138227,0.578784 0.135872,-0.110207 0.257863,-0.236506 0.386795,-0.354762 0.726318,-0.69628 1.149138,-1.604695 1.447252,-2.550033 0.192625,-0.784865 0.123383,-1.417698 -0.25541,-2.126435 -0.470869,-0.752692 -1.283933,-1.090472 -2.101009,-1.330703 -0.697367,-0.158673 -1.412467,-0.248907 -2.125935,-0.151276 -0.401693,0.05497 -0.725305,0.153853 -1.115822,0.257546 -0.174458,0.05642 -0.348914,0.112837 -0.523372,0.169254 0,0 1.856012,-1.435706 1.856012,-1.435706 v 0 c 0.176258,-0.05239 0.352518,-0.10477 0.528775,-0.157155 0.441034,-0.104346 0.689544,-0.178887 1.142913,-0.222787 0.735095,-0.07118 1.469409,0.03561 2.181437,0.214993 0.868002,0.28167 1.714317,0.672028 2.212477,1.478049 0.40672,0.760778 0.51534,1.444551 0.331076,2.296407 -0.28471,0.971806 -0.691719,1.925912 -1.406639,2.662875 -1.044921,1.058569 -1.637424,1.239467 -3.263995,2.130287 -0.223451,0.122378 -0.702818,0.280123 -0.953106,0.334013 -0.159041,0.03424 -0.322141,0.04574 -0.483208,0.06861 -0.165167,-0.0026 -0.331034,0.0075 -0.495496,-0.0079 -0.828749,-0.07788 -1.589003,-0.478948 -2.209276,-1.016246 -0.121373,-0.12909 -0.253262,-0.249044 -0.364117,-0.38727 -0.61635,-0.76853 -0.949606,-1.74497 -1.133682,-2.698049 -0.153112,-1.283449 -0.162353,-2.395435 0.32589,-3.619008 0.839086,-1.783776 1.656231,-2.219397 3.722931,-3.14324 0.69056,-0.218077 1.2593,-0.207462 1.971826,-0.107474 0.689189,0.100685 1.369219,0.257043 2.018647,0.513858 0,0 -1.983206,1.328635 -1.983206,1.328635 z"/>
</svg>
