<?xml version="1.0" encoding="UTF-8" standalone="no"?>
<svg
   xmlns:dc="http://purl.org/dc/elements/1.1/"
   xmlns:cc="http://creativecommons.org/ns#"
   xmlns:rdf="http://www.w3.org/1999/02/22-rdf-syntax-ns#"
   xmlns:svg="http://www.w3.org/2000/svg"
   xmlns="http://www.w3.org/2000/svg"
   version="1.1"
   height="45"
   width="45"
   viewBox="0 0 131.15775 135.69345">
  <defs />
  <g
     id="g986"
     style="fill:#ffffff;stroke-width:0.26458332"
     transform="translate(-43.089287,-52.449406)">
    <rect
       id="rect976"
       width="96.383926"
       height="94.872025"
       x="60.854156"
       y="72.860115"
       style="fill:#000000"
       ry="24.946428" />
  </g>
  <path
     d="m 41.346591,53.669644 c -0.311677,-0.192723 -0.638553,-0.361021 -0.967608,-0.522021 -0.245989,-0.121852 -0.483299,-0.260356 -0.717371,-0.403516 -1.807402,-1.194983 -0.965494,1.96986 0.80927,-5.713789 0.0073,-0.03173 0.888998,-0.119765 0.942403,-0.125031 1.754391,-0.146219 3.515279,-0.20421 5.274289,-0.266098 3.646604,-0.121785 7.295456,-0.128923 10.94365,-0.138869 4.605749,-0.0083 9.211475,-0.02385 13.817161,-0.04904 3.867555,-0.0095 7.734399,-0.08035 11.600759,-0.171571 2.162344,-0.06575 4.326509,-0.09307 6.487295,-0.202439 0.629443,-0.03876 1.260603,-0.07569 1.884285,-0.172891 0,0 -0.736931,5.526212 -0.736931,5.526212 v 0 c -0.632744,0.01485 -1.265704,0.01506 -1.898585,0.01825 -2.153515,-0.0046 -4.306936,-0.04348 -6.460528,-0.03962 -3.859223,-0.009 -7.718461,-0.0055 -11.577675,-0.01886 -4.606389,0.0032 -9.212909,0.0176 -13.818872,0.08539 -3.653496,0.06225 -7.308344,0.132878 -10.954851,0.383591 -1.755988,0.127407 -3.518002,0.242655 -5.257602,0.523516 -0.128626,0.02589 -0.43739,0.07451 -0.580785,0.142693 -0.03696,0.01757 -0.0992,0.120046 -0.09353,0.07952 0.253231,-1.810627 0.59336,-3.608499 0.840438,-5.419976 0.0049,-0.03557 -0.07903,2.87e-4 -0.104647,0.02544 -0.01375,0.0135 0.01756,0.0343 0.02634,0.05145 0.17443,0.171814 0.414489,0.268836 0.614516,0.406536 0.33293,0.16724 0.659454,0.346773 0.997878,0.502886 0,0 -1.069294,5.498244 -1.069294,5.498244 z"
     id="path1039"
     style="fill:#f9f9f9" />
  <path
     d="m 42.744761,66.652133 c 1.257726,-0.09059 2.519878,-0.110578 3.780307,-0.133878 3.572396,-0.07653 7.145799,-0.0828 10.718847,-0.09535 5.372687,-0.01096 10.745296,-0.03505 16.117842,-0.07512 4.579528,-0.02134 9.157972,-0.116803 13.735876,-0.234142 2.130923,-0.06019 1.099209,-0.02606 3.095201,-0.100579 0,0 -0.72665,5.172617 -0.72665,5.172617 v 0 c -1.989155,-0.0026 -0.961449,6.28e-4 -3.083114,-0.01038 -4.567752,-0.0144 -9.135543,-0.01755 -13.703313,-0.01597 -5.377154,0.02089 -10.754473,0.06201 -16.130198,0.195992 -3.585976,0.09608 -7.172895,0.200939 -10.752478,0.445103 -1.2424,0.08679 -2.50271,0.141472 -3.723106,0.40249 0,0 0.670786,-5.550778 0.670786,-5.550778 z"
     id="path1043"
     style="fill:#f9f9f9" />
  <path
     d="m 42.905535,88.356654 c 1.204767,-0.107731 2.411723,-0.182121 3.619507,-0.246932 3.011096,-0.157208 6.024234,-0.271983 9.037292,-0.384136 4.607506,-0.175 9.216212,-0.313019 13.825675,-0.423785 5.193926,-0.120071 10.388544,-0.20719 15.583204,-0.28818 3.758335,-0.06732 7.516237,-0.156196 11.274056,-0.247287 0,0 -0.706427,5.016758 -0.706427,5.016758 v 0 c -3.751596,0.01986 -7.503079,0.05345 -11.254422,0.101922 -5.192304,0.05506 -10.384723,0.125016 -15.575058,0.2846 -4.61576,0.152195 -9.230497,0.339114 -13.841201,0.606255 -3.021796,0.176295 -6.043542,0.365636 -9.058023,0.643087 -1.195962,0.116191 -2.402089,0.219347 -3.575389,0.488477 0,0 0.670786,-5.550779 0.670786,-5.550779 z"
     id="path1055"
     style="fill:#f9f9f9" />
  <metadata
     id="metadata1113">
    <rdf:RDF>
      <cc:Work
         rdf:about="">
        <dc:title></dc:title>
      </cc:Work>
    </rdf:RDF>
  </metadata>
</svg>
