<svg viewBox="0 0 131.15775 135.69345"
   xmlns:svg="http://www.w3.org/2000/svg"
   xmlns="http://www.w3.org/2000/svg">
  <g
     transform="translate(-43.089287,-52.449406)"
     style="stroke-width:0.26458332; fill:#fff"
     >
    <rect
       ry="24.946428"
       style="fill:#000000"
       y="72.860115"
       x="60.854156"
       height="94.872025"
       width="96.383926"
       />
    <path d="m 72.724832,110.87276 c 2.81655,-1.40577 5.5625,-2.94769 8.30996,-4.48279 4.72365,-2.5835 9.417961,-5.21773 14.034359,-7.988689 3.173031,-1.893456 6.319259,-3.835402 9.351119,-5.949103 1.04811,-0.732142 2.08595,-1.487157 3.05192,-2.325973 0.19813,-0.180398 0.4169,-0.336767 0.61811,-0.513403 1.10112,-1.473041 6.87393,1.875478 4.7457,2.190869 -0.0715,0.01061 -0.14462,0.05553 -0.21402,0.03526 -1.88472,-0.550587 -3.75141,-1.161094 -5.62712,-1.74164 -2.66913,-0.914908 7.02151,1.833676 4.2138,1.323668 -0.15257,-0.03223 -0.30916,-0.0285 -0.46422,-0.02987 -0.085,-0.0067 -2.7e-4,-0.05851 -0.11047,0.01942 -0.0956,0.0016 -0.19117,0.0019 -0.28675,0.003 -0.17596,-0.504257 0.0447,-0.295725 0.17412,-0.309701 0.60748,0.662557 1.39218,1.115994 2.17753,1.537121 2.65769,1.36884 5.30033,2.767857 7.94801,4.156906 4.47132,2.323415 8.93093,4.668335 13.36542,7.061275 3.16393,1.63955 6.16653,3.55639 9.07009,5.61611 0.94877,0.61237 1.66231,1.50308 2.54809,2.18454 0.076,0.0328 0.35071,0.31751 0.43559,0.171 -0.89394,2.60574 -0.0433,0.96222 -5.79343,-1.19436 -0.14141,-0.053 -0.32325,-0.32994 -0.45862,-0.43335 -0.0161,-0.01 -0.0322,-0.0195 -0.0484,-0.0292 0,0 5.57016,1.02437 5.57016,1.02437 v 0 c 0.0138,0.0165 0.0276,0.0329 0.0414,0.0494 2.17121,2.48651 -5.14458,-3.42825 -4.92337,-0.2111 -0.0289,-0.17719 -0.2792,-0.25488 -0.37482,-0.38764 -0.79687,-0.73814 -1.56708,-1.50435 -2.46832,-2.12224 -2.85833,-2.02856 -5.81715,-3.90844 -8.931,-5.5251 -4.45013,-2.40419 -8.9358,-4.740529 -13.42848,-7.064142 -2.68706,-1.401376 -5.3837,-2.785213 -8.06477,-4.196876 -0.81298,-0.493956 -1.76432,-1.009981 -2.1759,-1.917359 -0.0196,-0.25204 -0.0355,-0.579932 0.172,-0.742246 0.0955,0.0011 0.19101,0.0016 0.28652,0.0024 0.0322,0.07159 0.0289,0.01463 0.0975,0.0077 0.1678,-0.02143 0.33728,-0.02342 0.50531,-0.04278 2.26101,0.0047 4.40487,1.053256 6.50098,1.86953 -1.68201,-0.50746 -3.35696,-1.038932 -5.04603,-1.522383 -0.0602,-0.01725 0.0857,0.09961 0.14504,0.119602 0.0649,0.02185 0.14131,-0.02558 0.20544,-0.0016 1.84194,0.689891 6.62206,3.742285 5.50555,2.122998 -0.2261,0.120904 -0.42114,0.293278 -0.62643,0.445302 -1.01905,0.821222 -2.05352,1.62769 -3.1524,2.344497 -3.08932,2.09846 -6.29029,4.025744 -9.50313,5.927737 -4.616112,2.7564 -9.298057,5.39766 -13.991308,8.02011 -2.70455,1.54499 -5.40942,3.0908 -8.16115,4.54997 0,0 -5.22358,-2.0512 -5.22358,-2.0512 z"/>
    <path d="m 135.69835,106.80111 c -0.24483,3.46679 -0.0907,6.95037 0.02,10.42013 0.17213,5.23765 0.41927,10.47206 0.56268,15.71087 0.0994,3.74803 0.1498,7.49705 0.19616,11.24603 0.0224,1.18493 0.0142,2.37063 0.0547,3.5552 -6.07522,-1.90293 -5.43661,-0.16764 -5.43764,-3.6897 -10e-4,-0.65307 -5.3e-4,-0.33027 -0.002,-0.9684 0,0 5.42221,1.48335 5.42221,1.48335 v 0 c -0.002,0.63733 -7.9e-4,0.31491 -0.002,0.96726 0,3.3136 0.69828,2.49074 -5.43298,0.71306 0.0529,-1.17243 0.0354,-2.34702 0.0558,-3.52016 0.021,-3.73328 0.007,-7.46691 -0.0728,-11.19952 -0.13129,-5.24074 -0.37318,-10.47618 -0.59366,-15.71363 -0.14199,-3.50305 -0.29293,-7.01246 -0.16259,-10.5182 0,0 5.3919,1.51371 5.3919,1.51371 z"/>
    <path d="m 88.026893,109.71767 c -0.23896,3.13928 -0.11512,6.30759 -0.0118,9.45274 0.11649,4.23585 0.40537,8.4635 0.61,12.69534 0.11835,2.56868 0.19894,5.13888 0.24554,7.70982 0.0194,0.82388 0.0247,1.64797 0.0349,2.47199 5.3e-4,0.22894 0.005,0.458 0.002,0.68694 0.001,0.16369 7.9e-4,0.32731 5.3e-4,0.49099 -0.001,0.25866 -0.002,0.51734 -0.004,0.776 -0.005,0.39798 5.3e-4,0.79599 -2.7e-4,1.19396 -0.003,0.20381 0.008,0.40762 0.005,0.61138 8e-4,0.0134 10e-4,0.0268 0.002,0.0402 5.3e-4,0.005 8e-4,0.01 0.001,0.0147 0,0 -5.467281,-1.49568 -5.467281,-1.49568 v 0 c 5.3e-4,-0.005 7.9e-4,-0.009 10e-4,-0.014 7.9e-4,-0.013 0.001,-0.0261 0.002,-0.0391 -0.003,-0.20288 0.007,-0.40581 0.005,-0.60873 -7.9e-4,-0.39803 0.005,-0.79608 -2.7e-4,-1.19411 -0.002,-0.25941 -0.003,-0.51884 -0.004,-0.77825 -5.2e-4,-0.16392 -10e-4,-0.32777 8e-4,-0.49171 -0.002,-0.22845 0.005,-0.45702 0.008,-0.68544 0.017,-0.81561 0.0207,-1.63145 0.0262,-2.4472 -0.003,-2.5547 -0.0423,-5.10946 -0.14557,-7.66225 -0.18139,-4.23287 -0.44761,-8.4615 -0.59262,-12.69599 -0.12605,-3.19587 -0.26018,-6.40644 -0.108,-9.60208 0,0 5.389401,1.57049 5.389401,1.57049 z"/>
    <path d="m 90.093793,145.47666 c -1.23486,0.0958 -2.46919,0.19838 -3.70382,0.29713 -0.223371,0.0234 -0.448941,0.0288 -0.671721,0.0576 -8.5396,-3.4898 -5.39495,-2.26815 -2.88779,-2.05226 2.65651,0.19343 5.318701,-0.0176 7.971121,-0.17376 5.048266,-0.35769 10.096547,-0.69554 15.153067,-0.91107 5.29996,-0.23798 10.60229,-0.21992 15.9045,-0.10703 2.81503,0.0564 5.62855,0.0835 8.43558,0.31497 0.20578,0.0191 0.41163,0.0375 0.61734,0.0574 0.18067,0.0175 0.69659,-0.003 0.8823,0.0869 5.01408,2.42648 6.5526,2.26034 4.39972,2.40228 -0.72292,-0.019 -1.4287,0.0587 -2.13658,0.19452 0,0 -5.18406,-2.22259 -5.18406,-2.22259 v 0 c 0.72223,-0.14046 1.43631,-0.32905 2.17895,-0.26792 2.353,-0.0379 0.30091,-0.0551 5.85193,2.31424 0.0477,0.0203 -0.098,-0.035 -0.14879,-0.0449 -0.10138,-0.0199 -0.20434,-0.0307 -0.30672,-0.0446 -0.4504,-0.0611 -0.59887,-0.0751 -1.08611,-0.131 -2.84438,-0.28636 -5.69658,-0.35485 -8.55401,-0.41037 -5.31325,-0.13764 -10.62687,-0.19193 -15.93886,0.0526 -5.02666,0.20804 -10.04476,0.5436 -15.059927,0.94087 -2.625736,0.16953 -5.25736,0.41609 -7.89064,0.28931 -2.921981,-0.14969 -4.110861,-0.76232 -7.378211,-2.59409 0.23332,0.004 0.46661,-0.0257 0.69968,-0.0325 1.2404,-0.0761 2.48011,-0.16488 3.71727,-0.28335 0,0 5.135781,2.26767 5.135781,2.26767 z"/>
  </g>
</svg>