<svg viewBox="0 0 131.15775 135.69345" style="fill:#fff;stroke-width:0.26458335">
  <g
     transform="translate(-43.089287,-52.449406)"
     >
    <rect
       id="rect42"
       width="96.383926"
       height="94.872025"
       x="60.854156"
       y="72.860115"
       style="fill:#000000"
       ry="24.946428" />
  </g>
  <path d="m 65.022308,54.513111 c -0.255428,1.823786 -0.156027,3.68464 -0.112138,5.520314 0.12151,3.598313 0.297447,7.194122 0.566018,10.784473 0.288068,3.556026 0.64499,7.105973 1.056579,10.649702 0.239411,2.18277 0.477031,4.366535 0.641242,6.556481 0.06925,1.00032 0.107005,2.002469 0.126955,3.004881 0.0056,0.302543 0.0078,0.605112 0.01082,0.907682 -0.0011,0.08685 -7.94e-4,0.173707 7.94e-4,0.260543 0.0011,0.07932 0.01558,0.05504 -0.07984,-0.135454 0.144483,-0.01937 0.267859,0.05766 0.401309,0.103799 0.219811,0.05026 0.447691,0.05049 0.672089,0.05618 0.340019,0.02892 0.666184,-0.02305 0.994514,-0.107191 0.446257,-0.110342 0.881192,-0.264612 1.311129,-0.427545 0.06707,-0.02619 0.135356,-0.04952 0.201229,-0.07862 0.06164,-0.02723 0.121047,-0.05929 0.180935,-0.09019 0.05154,-0.02659 0.203565,-0.111194 0.153305,-0.08226 -3.4012,1.958237 -2.355961,1.405295 -1.695116,0.955398 0.195931,-0.163772 0.216953,-0.420267 0.210536,-0.659755 -0.05374,-0.375264 -0.195545,-0.733242 -0.313724,-1.092179 -0.192312,-0.620524 -0.302435,-1.259842 -0.373488,-1.904272 -0.0803,-1.001056 -0.160894,-2.001996 -0.24084,-3.003082 -0.08349,-1.350907 -0.146973,-2.703065 -0.217821,-4.05479 -0.06513,-1.288695 -0.08926,-2.578904 -0.101317,-3.869031 -0.04474,-1.180695 -0.100769,-2.360811 -0.177943,-3.539821 -0.09588,-1.503563 -0.11063,-3.010633 -0.125653,-4.516686 -0.0085,-1.520915 -0.01619,-3.041851 -0.02024,-4.56279 -0.0054,-1.027174 -0.0072,-2.054363 -0.01032,-3.081544 -0.0028,-0.728266 -0.0045,-1.456534 -0.0054,-2.184805 -0.01648,-0.520758 0.05484,-1.038225 0.103476,-1.555496 0.02151,-0.190751 0.02774,-0.382632 0.04045,-0.574008 0.0024,-0.05269 0.0021,-0.105445 0.0016,-0.158171 -2.51e-4,-0.034 -5.29e-4,-0.0721 2.65e-4,-0.107844 5.29e-4,-0.06788 -2.65e-4,-0.135771 -0.0016,-0.203639 1.19e-4,-0.0083 -5.29e-4,-0.01672 -0.0011,-0.025 0.0026,-0.06713 0.0027,-0.134382 0.0024,-0.201565 1.22e-4,-0.07669 2.65e-4,-0.153369 -7.94e-4,-0.230058 -1.96e-4,-0.01656 -7.93e-4,-0.03311 -0.0013,-0.04966 0.14726,0.238427 0.118788,0.171133 -0.01545,0.163539 -0.167643,-0.0037 -0.335344,-0.0035 -0.503018,-0.0042 -0.2017,0.0052 -0.384517,0.123942 -0.568338,0.199388 -0.776809,0.307938 -1.546535,0.854736 1.805633,-1.058942 0.04246,-0.02424 -0.08449,0.05017 -0.121698,0.08189 0,0 -2.207138,0.959726 -2.207138,0.959726 v 0 c 0.393975,-0.872895 1.549169,-1.094222 2.405266,-1.467901 0.199514,-0.08574 0.409519,-0.140036 0.628118,-0.12428 0.169508,2.04e-4 0.339024,0.0016 0.508529,5.29e-4 0.145852,-0.0075 0.06411,-0.07401 0.216697,0.155567 -5.3e-4,0.01699 -0.0011,0.03397 -0.0013,0.05096 -0.0013,0.07699 -0.0011,0.153966 -7.94e-4,0.230955 -2.65e-4,0.06659 -2.38e-4,0.133254 0.0024,0.199792 -2.64e-4,0.0084 -0.0011,0.01696 -0.0011,0.02537 -0.0016,0.06834 -0.0021,0.136705 -0.0016,0.205063 7.94e-4,0.03433 -5.29e-4,0.06832 0.0016,0.102121 0.0011,0.05729 2.33e-4,0.114591 -2.65e-4,0.171887 -0.0011,0.199276 -0.03544,0.397391 -0.04749,0.596045 -0.05823,0.511905 -0.135954,1.024853 -0.129532,1.541005 -7.94e-4,0.730218 -0.0027,1.460434 -0.0059,2.190644 -0.0038,1.031142 -0.0069,2.062287 -0.01307,3.093419 -0.0045,1.523079 -0.01304,3.046193 0.0021,4.569248 0.01622,1.498743 0.03822,2.998319 0.140817,4.494149 0.08067,1.182685 0.1432,2.366193 0.186343,3.550918 0.0089,1.288769 0.02289,2.577843 0.0863,3.865324 0.06864,1.347798 0.139182,2.69566 0.225711,4.042323 0.08714,0.995516 0.175572,1.990831 0.259191,2.986603 0.06868,0.626775 0.178189,1.247373 0.364398,1.850933 0.129413,0.37425 0.275822,0.747892 0.350419,1.137179 0.03875,0.287891 0.01662,0.592738 -0.116142,0.855745 -0.08386,0.102071 -0.08117,0.116617 -0.199924,0.185899 -0.912873,0.532603 -1.751118,1.13479 -2.736001,1.487027 -0.437359,0.15571 -0.877768,0.3082 -1.332973,0.403532 -0.344959,0.06405 -0.688618,0.09179 -1.03962,0.06418 -0.240776,-0.01331 -0.484907,-0.02574 -0.714118,-0.108008 -0.124127,-0.03867 -0.234209,-0.0494 -0.363908,-0.03691 -0.109794,-0.148119 -0.121436,-0.09859 -0.118168,-0.18764 0.0024,-0.08816 0.0038,-0.176356 0.0043,-0.264552 0.0088,-0.305493 0.01381,-0.611126 0.01603,-0.916733 0.0043,-1.006888 -0.01236,-2.013927 -0.06827,-3.019452 -0.130014,-2.200114 -0.340204,-4.394695 -0.559986,-6.587395 -0.382844,-3.555471 -0.719989,-7.115752 -1.016367,-10.679494 -0.277181,-3.583717 -0.461561,-7.172907 -0.628592,-10.7633 -0.07064,-1.83016 -0.178239,-3.672708 -0.03542,-5.501164 0,0 2.145252,-1.044898 2.145252,-1.044898 z"/>
  <path d="m 68.637975,44.541166 c -1.077736,0.787456 -2.235534,1.526252 -3.508214,1.948656 -0.465111,0.154371 -0.560112,0.160975 -1.043937,0.265494 -0.900661,0.104518 -1.848837,0.140811 -2.736779,-0.08394 -0.164949,-0.04175 -0.324416,-0.102769 -0.486624,-0.154151 -0.83474,-0.311431 -1.545704,-0.855578 -1.99493,-1.634144 -0.09909,-0.171741 -0.174567,-0.356071 -0.26185,-0.534106 -0.445796,-1.118809 -0.477689,-2.335025 -0.275198,-3.512902 0.04479,-0.260559 0.115231,-0.516054 0.172844,-0.774081 0.376952,-1.317347 0.998085,-2.550922 1.826194,-3.642323 0.159716,-0.210497 0.334259,-0.409324 0.501388,-0.613984 0.662773,-0.733962 1.375693,-1.432092 2.18553,-2.004153 0.822965,-0.581334 2.787063,-1.640067 3.091328,-1.814282 0.82277,-0.365739 1.75328,-0.620782 2.634565,-0.297363 0.161369,0.05922 0.310491,0.147593 0.465735,0.221388 0.866315,0.573958 1.316736,1.489707 1.496772,2.495002 0.04216,0.235387 0.05272,0.475348 0.07908,0.71302 0.02962,0.990746 -0.05147,1.989709 -0.275413,2.956751 -0.115297,0.497898 -0.227081,0.805902 -0.384265,1.287658 -0.248017,0.648203 -0.54057,1.306076 -1.057005,1.789631 -0.768149,0.719249 -1.801511,1.08875 -2.718101,1.605696 -0.857343,0.216294 -1.416513,0.07702 -2.115696,-0.43891 -0.291013,-0.228409 -0.471321,-0.528243 -0.646039,-0.845632 0,0 2.057374,-1.181444 2.057374,-1.181444 v 0 c 0.156432,0.288346 0.317688,0.555213 0.588595,0.754269 0.669308,0.450877 1.197168,0.516612 1.964251,0.237297 -0.554649,0.33224 -1.107536,0.667435 -1.663944,0.996717 -0.120438,0.07127 0.245594,-0.136578 0.355944,-0.222647 0.551834,-0.430405 0.858163,-1.073761 1.121172,-1.702869 0.151678,-0.440451 0.289499,-0.811411 0.403892,-1.265004 0.237866,-0.943187 0.323609,-1.922037 0.305525,-2.892626 -0.02252,-0.227243 -0.02893,-0.456663 -0.06754,-0.681731 -0.160735,-0.937046 -0.573794,-1.798357 -1.404348,-2.303071 -0.147278,-0.06083 -0.28928,-0.136454 -0.44183,-0.182486 -0.858235,-0.258961 -1.747306,0.05535 -2.519014,0.423982 0.484646,-0.285949 0.965761,-0.577972 1.453939,-0.857848 0.190193,-0.109038 -0.377505,0.223454 -0.5598,0.345233 -0.822759,0.549625 -1.542405,1.237139 -2.217045,1.956811 -1.084429,1.276578 -1.896033,2.531491 -2.371487,4.157586 -0.06065,0.25064 -0.134614,0.498427 -0.181948,0.751919 -0.210892,1.129433 -0.195964,2.305675 0.231486,3.382055 0.08322,0.167638 0.155205,0.341339 0.249661,0.502912 0.429538,0.73474 1.117415,1.224275 1.913043,1.497002 0.156425,0.04439 0.310515,0.09802 0.469273,0.133163 0.87512,0.193696 1.8003,0.15109 2.677891,0.0092 0.46805,-0.116407 0.578699,-0.129998 1.027202,-0.29554 0.158012,-0.05832 0.606968,-0.286398 0.467286,-0.192275 -0.520009,0.350393 -1.078349,0.640273 -1.614556,0.965337 -0.113165,0.0686 0.233032,-0.125859 0.345321,-0.195889 0.08589,-0.05356 0.165687,-0.116322 0.248531,-0.17448 0,0 2.211745,-0.898932 2.211745,-0.898932 z"/>
</svg>
