<?xml version="1.0" encoding="UTF-8" standalone="no"?>
<svg
   xmlns:dc="http://purl.org/dc/elements/1.1/"
   xmlns:cc="http://creativecommons.org/ns#"
   xmlns:rdf="http://www.w3.org/1999/02/22-rdf-syntax-ns#"
   xmlns:svg="http://www.w3.org/2000/svg"
   xmlns="http://www.w3.org/2000/svg"
   id="svg8"
   version="1.1"
   viewBox="0 0 173.86905 46.869045"
   height="46.869045mm"
   width="173.86905mm">
  <defs
     id="defs2" />
  <metadata
     id="metadata5">
    <rdf:RDF>
      <cc:Work
         rdf:about="">
        <dc:format>image/svg+xml</dc:format>
        <dc:type
           rdf:resource="http://purl.org/dc/dcmitype/StillImage" />
        <dc:title></dc:title>
      </cc:Work>
    </rdf:RDF>
  </metadata>
  <g
     style="fill:#ffffff">
    <rect
       y="0"
       x="0"
       height="46.869045"
       width="173.86905"
       style="fill:#000000" />
    <path
       d="m 32.669563,12.232663 c -2.581201,3.903059 -13.258208,-0.801042 -11.000774,6.232637 4.402809,1.803311 11.860936,6.060327 7.748796,11.631944 -2.369895,4.262516 -12.208873,5.881277 -13.196379,0.921784 3.249044,-0.767004 8.392054,2.964165 9.85782,-2.500025 3.033766,-7.629528 -9.245092,-4.018296 -8.273765,-10.75161 0.692641,-5.697034 7.821815,-8.7579414 12.793058,-6.286423 0.663811,0.320205 1.379198,0.505835 2.071244,0.751693 z m 4.225072,18.555898 c -0.641912,2.879362 -1.283823,5.758727 -1.925735,8.638089 -4.332027,-4.780423 0.47858,-10.794387 1.299225,-15.962027 -0.292846,-3.376732 1.147607,-7.469378 5.108115,-5.822217 3.935352,-2.501828 9.200266,0.148347 9.082937,4.93658 0.756177,5.958997 -5.195807,12.813888 -11.388932,10.53665 -0.977962,-0.470167 -1.794607,-1.302111 -2.17561,-2.327075 z m 10.3711,-5.68601 c 2.22154,-7.157398 -9.787033,-6.189764 -10.245187,-0.207737 -1.235495,6.281094 8.845757,8.189422 10.2399,2.050568 0.152803,-0.601077 0.162255,-1.241244 0.0053,-1.842831 z m 14.627997,-0.0582 c -6.84829,-4.401126 -5.728691,11.14257 -0.09071,5.308383 1.670773,-1.123624 4.413255,-6.493487 0.09071,-5.308383 z m 5.583421,-1.105214 c 0.204806,5.61602 -3.235051,10.322483 -8.953061,10.082186 -5.648552,0.599644 -7.897299,-9.341782 -2.058322,-10.471956 2.734158,0.736517 11.430247,-1.587311 6.329073,-4.477793 -1.986866,-0.0202 -7.546735,-0.398687 -2.954986,-2.373808 4.289771,-1.742388 10.326942,2.483068 7.637296,7.241371 z m 18.667166,-6.369494 c -4.89346,1.880898 -14.331021,2.640225 -12.026474,10.275903 0.662657,4.041859 12.204934,3.102492 5.174604,5.858577 -5.303207,1.452521 -9.390897,-4.425673 -7.880084,-9.217259 1.474205,-6.002067 9.137714,-10.147083 14.731954,-6.917221 z m 17.087201,6.849391 c -3.09031,3.617702 -13.802511,-1.722511 -11.730331,5.88364 2.23816,0.526187 11.582081,0.786294 5.51044,3.419949 -6.4127,2.269118 -11.92173,-6.301964 -8.24243,-11.632647 2.25417,-4.925533 9.90234,-7.789895 13.828751,-3.249022 1.19812,1.571691 1.43695,3.782139 0.63357,5.57808 z m -2.50072,-0.785277 c 4.13025,-7.963835 -14.044491,-2.061808 -4.345731,0.006 1.44858,-0.002 2.89715,-0.004 4.345731,-0.006 z m 9.88447,-12.1137 c 5.40503,4.006608 -0.4541,10.382642 -1.17858,15.197365 -0.27556,5.64329 7.87535,3.060665 9.14616,5.58941 -3.57071,1.576951 -10.25329,2.875772 -12.29044,-1.440931 0.30494,-5.216623 2.9218,-10.301776 3.48308,-15.706276 0.26896,-1.215677 0.54644,-2.429518 0.83978,-3.639568 z m 20.84891,13.524294 c -6.84829,-4.401136 -5.72871,11.14257 -0.0907,5.308393 1.67078,-1.123624 4.41326,-6.493487 0.0907,-5.308393 z m 5.58342,-1.105214 c 2.02919,7.407701 -9.15367,13.501395 -14.05887,7.360011 -3.66735,-5.76317 4.84989,-8.211028 9.06998,-8.541615 4.69371,-3.484222 -1.97423,-3.734899 -4.45387,-4.173966 0.3118,-4.557326 11.14432,-1.608801 10.07951,3.567829 l -0.21501,0.874644 z m 16.95874,1.163381 c 2.22151,-7.157448 -9.78711,-6.189694 -10.24521,-0.207647 -1.23545,6.281137 8.84585,8.189405 10.23994,2.050481 0.1528,-0.601077 0.16224,-1.241244 0.005,-1.842834 z m -7.83588,-5.686017 c 2.83758,-5.528281 11.95406,-1.754688 11.45789,3.963259 -0.17836,5.191773 -4.70375,10.162736 -10.11269,9.736016 -3.75969,0.524997 -8.29454,-0.728954 -5.70618,-5.13536 1.03833,-5.56898 1.12672,-11.632287 4.46321,-16.459592 4.50474,-1.7585987 -1.01972,6.491086 -0.10223,7.895677 z"
       style="fill-opacity:0.6" />
    <path
       d="m 32.608455,12.242805 c -3.392085,1.956615 -16.443438,2.796339 -7.313089,7.305245 7.233737,3.086972 4.631385,14.006192 -2.670021,14.441369 -3.423152,1.028404 -9.456197,-4.076359 -2.73569,-1.965381 7.671556,-0.809574 6.48473,-10.33085 -0.498394,-11.061837 -6.149159,-7.838551 8.001298,-12.7438452 13.217194,-8.719396 z m 4.22507,18.555902 c 2.448346,4.449603 -6.01324,10.293 -3.365997,2.528335 0.305893,-6.812311 2.503084,-18.136188 11.69761,-16.385387 8.104661,2.083498 5.852031,13.170955 -0.54962,15.88999 -2.659255,1.512901 -6.326967,0.809304 -7.781993,-2.032938 z m 10.371103,-5.68602 c 0.06917,-11.412847 -15.653011,1.370394 -6.566722,5.58571 3.210019,0.901884 6.566186,-2.489165 6.566722,-5.58571 z m 14.627994,-0.0582 c -8.876799,-2.110558 -0.842809,12.325371 2.220102,2.923145 0.793408,-1.561211 -0.09766,-4.008879 -2.220102,-2.923145 z m 5.583421,-1.105214 c 3.25788,7.871528 -11.369218,13.985282 -13.686422,5.41234 -3.142125,-7.772078 15.092627,-5.79837 7.616534,-10.113643 -9.674102,-4.692076 14.144599,-2.506958 6.069888,4.701303 z M 86.08321,17.579769 C 78.64525,15.513281 68.996227,28.296459 78.8532,31.310344 84.92726,34.497706 70.992212,34.870463 72.183957,29.037296 69.713893,21.084708 78.44956,12.354995 86.08321,17.579769 Z m 17.0872,6.849401 c -3.457357,0.0803 -15.83707,2.394948 -8.83837,6.340747 10.99875,3.240302 -9.8681,4.083476 -7.15297,-4.354666 0.4376,-6.478617 8.38773,-13.087257 14.42436,-8.533275 1.89626,1.521681 2.38549,4.332746 1.56698,6.547194 z m -2.50072,-0.785287 c 3.73805,-7.646205 -13.13257,-1.531591 -4.16147,0.15256 1.38588,-0.0709 2.77104,-0.25812 4.16147,-0.15256 z m 9.88446,-12.113695 c 6.85902,5.457164 -6.37534,16.909131 3.15584,19.510866 8.18017,2.159378 -8.60388,5.18718 -8.08957,-1.743788 1.30843,-5.83386 4.87046,-11.13967 4.93373,-17.767078 z m 20.84891,13.524299 c -8.8768,-2.110538 -0.84279,12.325371 2.22011,2.923145 0.79341,-1.561221 -0.0977,-4.008879 -2.22011,-2.923145 z m 5.58342,-1.105214 c 3.35602,8.031165 -11.39104,13.816245 -14.27364,5.69894 -2.71574,-7.892618 13.90494,-4.763956 8.65218,-10.485023 -10.36213,-3.519742 14.11837,-3.049655 5.62146,4.786083 z m 16.95875,1.163371 c 0.0692,-11.412844 -15.65301,1.370387 -6.56673,5.585703 3.21001,0.901874 6.56619,-2.489165 6.56673,-5.585703 z m -7.83588,-5.686007 c 5.97792,-6.811407 14.16932,3.894859 9.5574,10.005846 -2.80287,7.183251 -15.76595,5.858067 -14.55683,-2.703125 1.01687,-3.960159 2.59893,-13.126041 6.15991,-12.997574 0.1172,1.993874 -1.06411,3.733685 -1.16048,5.694853 z"
       style="fill-opacity:0.5" />
    <path
       d="m 32.345962,12.727458 c -5.023689,-1.478506 -10.591136,3.855303 -7.145769,8.602309 2.466715,2.838932 7.843996,5.1806 3.135294,9.100336 -1.961068,1.650121 -7.026118,4.413006 -8.464518,2.092568 2.368386,-1.858728 5.702258,-2.746302 3.055248,-6.155134 -1.367662,-4.113936 -5.430462,-8.906959 -2.760968,-13.227524 3.216797,-2.634955 8.602787,-2.273664 12.180713,-0.412555 z m 4.22507,18.555902 c -0.836024,3.880206 -3.994911,2.894342 -3.000638,-0.713917 0.660707,-5.30506 2.510126,-13.861222 9.232639,-13.731372 6.791112,-1.007234 9.149367,7.482518 5.791489,12.241641 -1.996416,5.00811 -8.617586,7.068011 -12.02349,2.203648 z m 10.371103,-5.68602 c -0.327871,-6.726451 -7.318652,-3.539629 -7.677388,1.268664 -2.541327,6.479334 7.210276,4.408036 7.591754,-0.16286 l 0.08077,-0.546957 z m 14.627994,-0.0582 c -3.056329,-0.0291 -6.313874,3.963469 -1.545079,4.507586 4.41816,1.224914 4.527304,-2.425035 1.545079,-4.507586 z m 5.583421,-1.105214 c 3.441424,5.50191 -3.488344,9.936756 -8.486707,8.160995 -6.611892,0.0891 -5.18954,-8.474855 0.38996,-8.504805 5.711602,-0.236247 -2.015784,-8.973979 4.405403,-6.789901 3.164022,0.2979 7.087144,4.397436 3.691344,7.133711 z m 18.667166,-6.369504 c -5.43422,-2.367458 -10.141916,3.010892 -9.702535,8.227755 -0.72877,2.356538 1.304631,6.981031 1.04195,7.643218 -6.832563,-0.501477 -6.855626,-9.389052 -3.294661,-13.541818 2.514583,-4.154086 8.195536,-6.17964 11.955246,-2.329155 z m 17.087204,6.849401 c -3.839994,-2.540825 -9.788304,1.596274 -9.035264,5.991677 0.97293,2.403128 5.989426,1.933191 1.39109,3.018515 -7.27546,1.746868 -8.87585,-8.373825 -5.81297,-13.036951 2.2069,-5.649267 11.322024,-5.672197 13.551624,-0.128527 0.51837,1.325431 0.51059,2.858922 -0.0945,4.155286 z m -2.50072,-0.785287 c 1.76822,-5.946847 -8.062564,-2.395175 -4.804354,0.706337 1.63186,0.268187 3.25524,-0.25739 4.804354,-0.706337 z m 9.88446,-12.113695 c 1.43941,7.295242 1.25009,14.772763 1.96756,22.145071 -6.50124,1.519501 -7.73754,-6.045654 -5.34438,-10.425143 1.0658,-3.902699 3.22492,-7.618988 3.37682,-11.719928 z m 20.84891,13.524299 c -3.05634,-0.0291 -6.31388,3.963489 -1.54507,4.507596 4.41817,1.224904 4.52731,-2.425045 1.54507,-4.507596 z m 5.58342,-1.105214 c 3.27369,6.004597 -4.30378,10.197173 -9.43981,8.050625 -5.6453,-0.344997 -4.83118,-6.682364 -0.0671,-7.721408 5.05397,-0.15319 2.55754,-5.584277 4.2383,-7.630588 3.40292,-0.0632 10.66627,3.935599 5.26858,7.301371 z m 16.95875,1.163371 c -0.32786,-6.726451 -7.31864,-3.539649 -7.67738,1.268647 -2.54134,6.479324 7.21025,4.408046 7.59174,-0.16284 l 0.0808,-0.546957 z m -7.83588,-5.686007 c 5.09085,-4.209876 11.48236,1.256114 9.40027,7.203014 -0.39951,4.593813 -4.50026,10.39249 -9.63176,7.913435 -5.8364,-1.799751 -5.64776,-8.485402 -3.64559,-13.156248 0.15919,-2.595958 4.87898,-9.789974 4.03969,-3.158415 l -0.0714,0.572057 z"
       style="fill-opacity:0.7" />
  </g>
</svg>
