<svg viewBox="0 0 131.15775 135.69345" style="stroke-width:0.26458332; fill:#fff">
  <g transform="translate(-43.089287,-52.449406)">
    <rect
       id="rect42"
       width="96.383926"
       height="94.872025"
       x="60.854156"
       y="72.860115"
       style="fill:#000000"
       ry="24.946428" />
  </g>
  <path d="m 36.077874,50.665448 c 0.04824,-0.384703 0.05455,-0.771631 0.04883,-1.158842 -0.0071,-0.310263 -0.01763,-0.620417 -0.02718,-0.930605 -0.0042,-0.150978 -0.0108,-0.302213 -0.01333,-0.453066 0.296023,0.779486 -0.02318,0.0241 1.926623,-0.942503 0.04043,-0.02005 -0.04553,0.08042 -0.06347,0.123071 -0.106628,0.253391 -0.165654,0.532604 -0.236681,0.797638 -0.348457,1.407244 -0.632478,2.83067 -0.929554,4.250274 -0.609064,2.953438 -1.259624,5.897427 -1.905921,8.84225 -0.77421,3.539218 -1.570325,7.073314 -2.321868,10.61783 -0.592985,2.752288 -1.081873,5.526536 -1.517689,8.309797 -0.262746,1.650836 -0.446302,3.31355 -0.617771,4.976793 -0.101173,0.79165 -0.157529,1.592872 -0.324646,2.373671 -0.07192,0.298725 -0.20174,0.570571 -0.412527,0.787518 0,0 -2.07554,0.839324 -2.07554,0.839324 v 0 c 0.266995,-0.100756 0.400943,-0.374044 0.496282,-0.635934 0.208863,-0.770622 0.256122,-1.577402 0.375797,-2.365669 0.190476,-1.676049 0.39155,-3.351678 0.667399,-5.015274 0.459173,-2.795565 0.964869,-5.582951 1.56996,-8.348882 0.761638,-3.54367 1.56602,-7.077297 2.326796,-10.621196 0.630416,-2.929463 1.261702,-5.859113 1.832332,-8.801925 0.277202,-1.410102 0.542059,-2.82318 0.85374,-4.225646 0.166518,-0.677262 0.860376,-3.982634 2.31927,-2.067725 0.05314,0.159354 0.0092,0.339912 0.02886,0.505663 0.0065,0.312222 0.01453,0.62441 0.02079,0.936639 0.0068,0.392396 0.0064,0.784092 -0.0275,1.175395 0,0 -1.992995,1.031404 -1.992995,1.031404 z"/>
  <path d="m 35.743623,47.915677 c 1.23803,-1.048496 2.683804,-1.813437 4.124792,-2.519011 1.472556,-0.687554 2.99784,-1.242576 4.529996,-1.766782 1.462,-0.504525 2.946132,-0.932396 4.430986,-1.356627 0.864758,-0.248951 1.735854,-0.474006 2.597791,-0.73345 0.845747,-0.278333 2.254775,-1.252805 -1.156862,0.795674 1.647623,-1.166963 1.411317,-1.213404 2.482346,-1.093521 0.148573,0.03191 0.290995,-0.0068 0.437647,-0.02926 0.03099,-0.01724 0.113237,-7.65e-4 0.140593,-0.02999 0.0093,-0.0099 0.02256,-0.04704 0.01114,-0.03989 -1.905288,1.194089 -1.404784,1.796838 -1.899974,1.182231 -0.06611,0.04046 -0.124408,-0.0082 -0.187695,-0.03527 -0.09216,-0.01718 -0.158265,-0.06621 -0.23246,-0.123716 -0.04308,-0.03378 -0.08549,-0.06847 -0.127888,-0.103175 0.0058,0.01185 -0.02747,-0.02864 -0.02345,-0.0192 0.328873,0.769747 1.475435,-0.793918 1.924966,-1.044904 0.02097,-0.0117 -0.01034,0.04855 -0.01124,0.07327 -0.0012,0.03226 0.0032,0.06447 0.0049,0.09671 0.08612,0.491446 0.223192,0.971737 0.365938,1.448127 0.26035,0.90144 0.596501,1.77556 0.93687,2.646761 0.355089,0.898135 0.729833,1.787689 1.085899,2.685375 0.246193,0.6035 0.487504,1.209247 0.686332,1.83154 0.09416,0.296853 0.148664,0.599267 0.129404,0.911442 -0.0095,0.09501 -0.02637,0.192892 -0.06858,0.278691 0,0 -2.083248,0.839521 -2.083248,0.839521 v 0 c 0.07895,0.0067 0.11897,-0.01252 0.156077,-0.09125 0.04669,-0.284668 0.01377,-0.557073 -0.07048,-0.833198 -0.185494,-0.622058 -0.418257,-1.226364 -0.659552,-1.827164 -0.348285,-0.901326 -0.720846,-1.792199 -1.077214,-2.69009 -0.345522,-0.874163 -0.685613,-1.751641 -0.960132,-2.653269 -0.154764,-0.485081 -0.297301,-0.974317 -0.410907,-1.471768 -0.01208,-0.06982 -0.04211,-0.22565 -0.02945,-0.23483 4.1019,-2.974925 1.298226,-1.76073 1.996004,-1.182132 0.03794,0.03124 0.07609,0.06237 0.116858,0.08959 0.06379,0.03875 0.138448,0.04366 0.20458,0.08027 0.1,0.03718 0.19326,0.05304 0.258162,0.154879 0.462266,0.778445 -1.183251,1.420041 -1.962874,1.446088 -0.156508,0.01681 -0.309746,0.0099 -0.465627,-0.01461 -0.908126,-0.09301 -1.466061,0.508109 1.400976,-1.1058 -1.019627,0.627148 -1.632075,1.177268 -2.65645,1.457723 -0.853824,0.241788 -1.712667,0.464014 -2.566389,0.706255 -1.476809,0.416451 -2.950705,0.84478 -4.40256,1.348896 -1.535889,0.532773 -3.065432,1.096726 -4.534936,1.807265 -0.191763,0.09785 -0.385296,0.192044 -0.575292,0.293548 -0.231722,0.123795 -2.905677,1.658889 0.951375,-0.596766 0.269523,-0.157621 -1.006451,0.655019 -0.752785,0.548308 0,0 -2.057654,0.873533 -2.057654,0.873533 z"/>
  <path d="m 53.285194,51.773732 c -0.266253,-0.0612 -0.535979,-0.103963 -0.805401,-0.146829 -0.169348,-0.02667 -0.338809,-0.05257 -0.508275,-0.07843 -0.43996,0.491137 -0.220237,0.08619 1.855997,-1.278506 7.37e-4,-5.1e-4 0.452406,0.04712 0.514571,0.05214 0.97139,0.07013 1.945526,0.05564 2.918508,0.05272 1.807938,0.0037 3.615525,-0.02522 5.423179,-0.05403 2.110572,-0.02904 4.220607,-0.08912 6.329995,-0.166694 1.533916,-0.05913 3.067843,-0.117889 4.601751,-0.177181 0.665249,-0.02589 1.330473,-0.0527 1.995177,-0.091 0.164042,-0.01051 0.327986,-0.02254 0.491913,-0.03477 0,0 -1.795614,1.373403 -1.795614,1.373403 v 0 c -0.160955,0.0092 -0.321962,0.01737 -0.483072,0.02295 -0.652907,0.02423 -1.306082,0.03983 -1.959109,0.05995 -1.520488,0.04518 -3.040877,0.09375 -4.561139,0.146558 -2.109338,0.07068 -4.21916,0.126736 -6.32935,0.161538 -1.819289,0.03409 -3.638549,0.06568 -5.458127,0.07766 -0.990693,0.01026 -1.982766,0.02945 -2.972163,-0.03782 -0.147565,-0.01382 -0.281982,-0.02109 -0.426276,-0.0518 -0.04612,-0.0098 -0.17186,-0.0067 -0.136241,-0.0387 3.608279,-3.23979 0.988732,-1.587395 1.814191,-1.349722 0.167546,0.02784 0.335083,0.05573 0.502511,0.08431 0.272121,0.04684 0.543673,0.0969 0.814496,0.151306 0,0 -1.827522,1.32291 -1.827522,1.32291 z"/>
  <path d="m 75.101848,50.794486 c -0.237117,0.08936 -0.482407,0.187866 -0.737658,0.17852 -0.360699,-0.107721 -0.185479,-0.512034 -0.06293,-0.74288 0.48526,-0.726445 0.990659,-1.438529 1.484956,-2.158516 0.757853,-1.090456 1.457083,-2.221182 2.113678,-3.379755 0.487317,-0.878929 0.936528,-1.780263 1.292627,-2.725149 0.0978,-0.332448 0.259601,-0.686958 0.23113,-1.044722 -0.01848,-0.04417 0.04102,0.08641 0.0622,0.129256 0,0 1.753415,-1.440472 1.753415,-1.440472 v 0 c 0.06343,0.07263 0.128724,0.134499 0.155852,0.230609 0.0697,0.395759 -0.09842,0.797784 -0.212133,1.166916 -0.360125,0.960925 -0.811737,1.87812 -1.307191,2.771499 -0.654942,1.160944 -1.346731,2.297796 -2.099042,3.39393 -0.480598,0.710787 -0.963253,1.420081 -1.450777,2.125742 -0.03518,0.05412 -0.07036,0.108237 -0.10554,0.162356 -0.02298,0.03801 -0.04492,0.07672 -0.06894,0.114029 -0.05423,0.08419 -0.09885,0.03395 0.0036,0.02438 0.239899,-0.05128 0.4718,-0.137282 0.697267,-0.235738 0,0 -1.750477,1.429993 -1.750477,1.429993 z"/>
  <path d="m 81.849608,41.201583 c 0.784027,0.179099 1.581804,0.292508 2.375255,0.417856 1.556148,0.254644 3.121401,0.439124 4.686399,0.622818 1.547925,0.170002 3.098064,0.317283 4.647372,0.473087 0.754689,0.06544 1.506617,0.15359 2.255897,0.267319 0,0 -1.798312,1.315177 -1.798312,1.315177 v 0 c -0.736514,-0.118396 -1.47626,-0.208093 -2.218221,-0.281441 -1.542222,-0.167462 -3.085927,-0.319213 -4.627718,-0.490821 -1.574504,-0.183442 -3.149035,-0.368195 -4.716463,-0.610134 -0.813585,-0.120845 -1.630703,-0.229202 -2.43601,-0.401262 0,0 1.831801,-1.312599 1.831801,-1.312599 z"/>
  <path d="m 93.696662,42.531942 c 0.0707,1.116495 0.395998,2.204056 0.676884,3.278546 0.793614,2.955409 1.667766,5.8864 2.556967,8.811976 1.096099,3.595333 2.252231,7.170387 3.388367,10.752156 0.92603,2.92635 1.83814,5.857405 2.72873,8.795598 0.53884,1.813498 1.06551,3.631105 1.57333,5.454263 0.2612,0.902904 0.49181,1.814199 0.69427,2.733077 0.0907,0.417642 0.17732,0.836219 0.26354,1.254879 0.0402,0.187327 0.084,0.372959 0.0891,0.565419 4.9e-4,0.08068 -0.005,0.161199 -0.0114,0.241534 -0.0849,0.964766 1.94541,-1.023734 -1.96855,1.342594 -0.0538,0.01903 -0.10953,0.02985 -0.16571,0.03756 -0.0607,-0.01444 -0.14444,-0.03061 -0.18987,0.01714 -0.10563,0.0448 -0.21018,0.09544 -0.30998,0.153854 -0.19654,0.08592 -0.40315,0.146303 -0.6123,0.189371 -0.47166,0.119213 -0.95539,0.179743 -1.43523,0.252584 -1.02936,0.122867 -2.061001,0.225524 -3.092198,0.330831 -1.456432,0.142468 -2.913857,0.274093 -4.369845,0.421541 -1.299724,0.133665 -2.601341,0.245834 -3.903571,0.349384 -0.746938,0.05183 -1.503263,0.0813 -2.235401,-0.102995 -0.343365,-0.104084 -0.5592,-0.313046 -0.563213,-0.690692 0.03943,-0.257349 0.1838,-0.466174 0.344222,-0.658088 0.09525,-0.117433 0.186586,-0.238207 0.277698,-0.359104 0.04128,-0.05486 0.08241,-0.109852 0.123515,-0.164856 0.0512,-0.09589 0.06497,-0.003 0.09911,0.06459 0.01402,0.05056 -0.05457,-0.03433 -0.06563,-0.04439 -0.08186,-0.07671 -0.141221,-0.174633 -0.208777,-0.264574 -0.12821,-0.235741 -0.264712,-0.465341 -0.407295,-0.691967 -0.348602,-0.562803 -0.750434,-1.087276 -1.152311,-1.609403 -0.773301,-0.982349 -1.528322,-1.979989 -2.273949,-2.985103 -0.886529,-1.219811 -1.745977,-2.460679 -2.658807,-3.65958 -0.754223,-1.025904 -1.580691,-1.990389 -2.46487,-2.896429 -0.624801,-0.622971 -1.314301,-1.165451 -2.017892,-1.686796 -0.413543,-0.299632 -0.842961,-0.573947 -1.24945,-0.883933 -0.192307,-0.148631 -0.381724,-0.301234 -0.570902,-0.454119 -0.08183,-0.0662 -0.163575,-0.132521 -0.245312,-0.198851 -0.03504,-0.02843 -0.07008,-0.05688 -0.105119,-0.08532 -0.01502,-0.01219 -0.03003,-0.02439 -0.04504,-0.03656 0.02021,0.04475 -0.0098,0.04236 -0.05961,0.04197 -0.06352,-0.0023 -0.127085,-0.002 -0.19064,-0.0029 -0.102941,-0.0042 -0.190653,0.04399 -0.293612,0.06633 -0.139712,0.0053 -0.26302,0.05662 -0.394396,0.09901 -0.174221,0.0242 -0.339605,0.07963 -0.509682,0.123068 -0.256044,0.05233 -0.506914,0.130383 -0.762766,0.185268 -0.473507,0.120312 -0.956282,0.197159 -1.437135,0.278376 -0.828785,0.124875 -1.657107,0.253044 -2.486137,0.37611 -1.011012,0.154645 -2.018675,0.333534 -3.022705,0.531129 -0.866517,0.171726 -1.730848,0.354433 -2.599586,0.514 -0.519496,0.09789 -1.041963,0.20179 -1.571774,0.172381 -0.264306,-0.0153 -0.519215,-0.08709 -0.755739,-0.207869 -0.109537,-0.05831 -0.21608,-0.122399 -0.322384,-0.18677 -0.04811,-0.04191 -0.09752,-0.0473 -0.154976,-0.06129 -0.07553,-0.03335 -0.0727,0.01854 -0.125597,0.05889 -0.0497,0.0352 -0.116708,0.03598 -0.176418,0.03612 -0.108691,0.01666 -0.204351,0.0032 -0.307185,-0.03181 -0.08868,-0.02201 -0.177705,-0.04244 -0.266675,-0.06309 -0.04389,-0.01018 -0.0878,-0.02035 -0.131702,-0.0305 -0.06084,0.01227 -0.10414,-0.04382 -0.163975,-0.06127 -0.127369,-0.07356 -0.263455,-0.131451 -0.400663,-0.18233 -0.186186,-0.06219 -0.379004,-0.09592 -0.571756,-0.1269 -0.190809,-0.01204 -0.372932,-0.05919 -0.557524,-0.106633 -0.156331,-0.04409 -0.317574,-0.06409 -0.477992,-0.08438 -0.149767,-0.01658 -0.300088,-0.02643 -0.45034,-0.03674 -0.09972,-0.0078 -0.199678,-0.01122 -0.299585,-0.0154 -0.07154,-0.05249 -0.153159,-0.07924 -0.234575,-0.109675 -0.08544,-0.01456 -0.171707,-0.02104 -0.258165,-0.02575 -0.01976,0.0056 -0.04002,0.0095 -0.0593,0.01673 -0.084,0.03136 -0.167022,0.06084 -0.24435,0.108337 -0.0384,0.02358 -0.151682,0.09761 -0.112896,0.0747 0.587421,-0.34702 1.17263,-0.698069 1.758943,-1.047104 -0.508332,0.345799 -0.899031,0.841414 -1.274071,1.330066 -0.711923,0.964783 -1.266908,2.039152 -1.809661,3.112104 -0.675334,1.392733 -1.234574,2.840853 -1.809554,4.280004 -0.490668,1.28666 -1.029734,2.551089 -1.655847,3.772771 -0.462396,0.922199 -1.061283,1.75037 -1.727552,2.521646 -0.466782,0.536933 -1.006123,0.993164 -1.556273,1.433023 -0.322245,0.254535 -0.656734,0.491296 -1.002054,0.710532 -0.797702,0.494735 -1.605762,0.971235 -2.412432,1.449996 -0.07479,0.04438 -0.14959,0.08871 -0.224387,0.13306 -0.03209,0.01903 -0.06418,0.03805 -0.09626,0.05708 -0.693195,0.414624 2.404731,-1.639031 1.764994,-1.049544 -0.77275,0.4431 -1.523711,1.000345 -2.340529,1.377641 -0.201854,0.118287 -0.419965,0.202657 -0.628653,0.306362 -0.333707,0.19987 -0.691951,0.342963 -1.053413,0.477438 -0.676635,0.24216 -1.381089,0.389607 -2.087957,0.496694 -0.871603,0.113034 -1.748726,0.170709 -2.625183,0.22514 0,0 1.763143,-1.347605 1.763143,-1.347605 v 0 c 0.872422,-0.05449 1.746071,-0.111593 2.611648,-0.241988 0.704504,-0.123969 1.406932,-0.281269 2.076627,-0.54551 0.361331,-0.145908 0.709439,-0.318488 1.055124,-0.500349 0.212874,-0.09756 0.421765,-0.203621 0.628669,-0.314072 1.273441,-0.715131 -2.172185,1.30142 -1.476749,0.910876 0.714226,-0.359775 1.36004,-0.850013 2.050857,-1.255791 0.03157,-0.01859 0.06315,-0.0372 0.09471,-0.05583 0.07357,-0.04339 0.147132,-0.0868 0.220609,-0.130365 1.086535,-0.644983 -2.52361,1.513658 -1.391665,0.836337 0.352328,-0.214102 0.696921,-0.440317 1.025509,-0.692545 0.555543,-0.43422 1.109755,-0.873734 1.587245,-1.402237 0.679432,-0.753695 1.295774,-1.56401 1.766063,-2.478382 0.642351,-1.212931 1.191399,-2.473268 1.682464,-3.760184 0.577369,-1.440791 1.134775,-2.891783 1.795682,-4.294381 0.532352,-1.076586 1.075771,-2.154794 1.763712,-3.135151 0.362175,-0.502552 0.745549,-0.996385 1.21748,-1.393656 0.680391,-0.410114 1.357914,-0.825399 2.041169,-1.230338 0.09529,-0.05647 0.223494,-0.09307 0.332828,-0.106528 0.07275,-0.009 0.09752,-0.002 0.167814,0.0066 0.100147,0.01357 0.201135,0.03021 0.293894,0.07384 0.05975,0.02361 0.131788,0.07448 0.194714,0.05187 0.100379,0.0059 0.200669,0.01286 0.300836,0.02183 0.152603,0.01298 0.305283,0.02637 0.456824,0.04962 0.164913,0.02597 0.32859,0.05864 0.489799,0.10358 0.181082,0.04325 0.364752,0.06413 0.548058,0.09495 0.202728,0.03905 0.404888,0.08579 0.597436,0.164067 0.135033,0.05737 0.26783,0.120654 0.403398,0.175825 0.05842,0.02645 0.09324,0.01441 0.150922,0.03545 0.0432,0.01058 0.0864,0.02114 0.129628,0.03156 0.08682,0.02086 0.173627,0.04213 0.261406,0.05823 0.08671,0.0023 0.174883,-0.02193 0.26019,-0.03838 0.05342,-0.02224 0.101488,-0.05043 0.156456,-0.06442 0.07699,-0.0057 0.137323,0.03813 0.209212,0.06067 0.06493,0.02669 0.120927,0.06809 0.181015,0.104549 0.09927,0.06069 0.199263,0.120635 0.304512,0.16962 0.220771,0.09322 0.457555,0.134121 0.695493,0.138746 0.515174,-0.0049 1.022158,-0.10347 1.528323,-0.195442 0.863709,-0.158552 1.723415,-0.338548 2.585561,-0.505824 1.007169,-0.193081 2.01714,-0.371425 3.03052,-0.525789 0.833216,-0.128111 1.666776,-0.254181 2.498561,-0.392008 0.48374,-0.08693 0.967647,-0.175803 1.443962,-0.300563 0.254895,-0.06644 0.51021,-0.131114 0.765532,-0.195501 0.168598,-0.04731 0.34143,-0.07429 0.507626,-0.130875 0.133838,-0.03826 0.270125,-0.05315 0.405146,-0.08653 0.110806,-0.02568 0.212513,-0.04021 0.326142,-0.02479 0.06614,0.0018 0.132274,0.004 0.19816,0.01069 0.06066,0.0074 0.09889,0.019 0.137165,0.07355 0.01473,0.01237 0.02945,0.02473 0.04417,0.03713 0.03436,0.02887 0.06871,0.05773 0.103074,0.08659 0.08004,0.06721 0.160099,0.134398 0.240309,0.201385 0.184055,0.153506 0.368502,0.306553 0.556809,0.454418 0.40194,0.310123 0.825548,0.587952 1.231057,0.893001 0.705142,0.534018 1.39124,1.095342 2.016288,1.730077 0.882186,0.919069 1.70659,1.895216 2.461707,2.93005 0.909479,1.202416 1.767687,2.445087 2.660994,3.660404 0.750691,1.000876 1.512215,1.993099 2.297838,2.964727 0.412873,0.523632 0.827326,1.048238 1.19023,1.611209 0.142255,0.219419 0.279183,0.441554 0.409124,0.669058 0.05942,0.07771 0.112695,0.162467 0.190215,0.222482 0.03366,0.02892 0.07032,0.04404 0.09257,0.08663 0.04131,0.073 0.105332,0.141304 0.03226,0.20743 -0.0422,0.05558 -0.0844,0.111172 -0.12661,0.166756 -0.0933,0.122842 -0.18662,0.245673 -0.280747,0.367837 -0.136687,0.17692 -0.308125,0.327261 -0.396376,0.540784 -0.105402,0.264529 0.185179,0.34525 0.382841,0.404046 0.713891,0.151774 1.444983,0.120397 2.168443,0.07029 1.295061,-0.09702 2.589324,-0.205513 3.881466,-0.338543 1.459411,-0.144733 2.919703,-0.27969 4.378658,-0.4295 1.039416,-0.111363 2.079976,-0.217438 3.115556,-0.36279 0.48305,-0.07783 0.96821,-0.151315 1.44096,-0.283446 0.20245,-0.06216 0.40408,-0.128226 0.59104,-0.231985 0.11261,-0.0468 0.22018,-0.102998 0.34307,-0.116252 0.0564,0.0093 0.14543,0.02163 0.19353,-0.0179 0.0482,-0.01734 0.0959,-0.03624 0.14398,-0.05417 -0.61145,0.381292 -1.23257,0.746326 -1.83436,1.143872 -0.0133,0.0088 0.0688,0.08137 0.0439,-0.03075 0.008,-0.07531 0.0172,-0.150626 0.0233,-0.226203 0.0121,-0.179613 -0.0172,-0.349957 -0.0579,-0.525062 -0.0794,-0.421138 -0.1592,-0.842212 -0.24327,-1.26238 -0.18751,-0.921697 -0.40071,-1.837067 -0.64977,-2.743119 -0.48454,-1.833178 -0.98967,-3.66059 -1.51244,-5.482381 C 100.34998,72.2639 99.457102,69.323499 98.539802,66.391199 97.414531,62.80498 96.263506,59.22752 95.152584,55.636435 94.249216,52.720483 93.356161,49.800926 92.504981,46.867995 92.19736,45.786559 91.864293,44.70183 91.712636,43.582042 c 0,0 1.983951,-1.050155 1.983951,-1.050155 z"/>
  <path d="m 40.745119,62.535155 c 1.340601,-0.997429 2.555185,-1.466928 4.049238,-1.971548 1.270475,-0.419824 2.558035,-0.777163 3.852503,-1.10693 1.069988,-0.292298 2.154569,-0.513597 3.247546,-0.687605 0.240505,-0.0126 0.957325,-0.156879 1.179176,-0.02129 0.03099,0.01895 0.04927,0.05442 0.07391,0.08163 0.01626,0.05191 0.04492,0.101285 0.04877,0.155724 0.0031,0.0426 0.0058,0.101773 -0.02889,0.124578 -0.909795,0.596817 -1.434955,1.030604 -2.291828,1.313211 0,0 1.74838,-1.418456 1.74838,-1.418456 v 0 c 0.761477,-0.322391 1.342297,-0.900075 -1.520183,0.978738 -0.02484,0.0163 0.0599,0.0048 0.08642,0.0179 0.02581,0.01278 0.04376,0.03824 0.06564,0.05735 -0.358092,0.0069 -0.748489,-0.0023 -1.11184,0.07424 -1.081569,0.169934 -2.152364,0.399829 -3.211501,0.684963 -1.295759,0.334098 -2.584557,0.696674 -3.85339,1.129747 -0.403145,0.141167 -0.604025,0.20753 -0.994655,0.358842 -0.830359,0.321643 -2.711175,1.3152 0.734118,-0.608619 0,0 -2.073416,0.837515 -2.073416,0.837515 z"/>
  <path d="m 42.915452,55.754101 c -0.258633,-0.254306 -0.464717,-0.553958 -0.656233,-0.863677 -0.145029,-0.246185 -0.266811,-0.506081 -0.371323,-0.773258 -7.37e-4,-0.05307 -0.275786,-0.525162 -0.124328,-0.238112 0.642305,-0.369953 1.252953,-0.806713 1.926912,-1.109863 0.0657,-0.02955 0.05726,0.13633 0.08594,0.204476 0.03989,0.09479 0.07989,0.189516 0.119749,0.284316 0.185753,0.441841 0.37436,0.882309 0.562809,1.322917 0.61287,1.436346 1.206635,2.881446 1.786159,4.332626 0.641026,1.603933 1.292237,3.203564 1.969633,4.791308 0.457763,1.084193 0.941823,2.155407 1.489506,3.193761 0.237105,0.417379 0.462843,0.879692 0.859973,1.157475 0.03031,0.01055 0.06062,0.02112 0.09093,0.03167 0,0 -1.856632,1.272156 -1.856632,1.272156 v 0 c -0.03749,-0.02369 -0.07499,-0.04737 -0.11249,-0.07105 -0.389526,-0.337401 -0.641258,-0.801768 -0.879067,-1.260131 -0.535627,-1.052883 -1.009475,-2.136427 -1.463662,-3.229683 -0.667943,-1.594033 -1.314443,-3.197604 -1.961858,-4.800731 -0.582266,-1.446044 -1.182006,-2.884634 -1.815326,-4.307444 -0.195044,-0.436328 -0.389942,-0.87276 -0.587538,-1.30785 -0.04235,-0.09326 -0.08534,-0.1862 -0.128111,-0.279254 -0.03131,-0.06813 -0.147952,-0.153577 -0.09413,-0.204307 0.556452,-0.524435 1.201687,-0.9372 1.802533,-1.405799 0.110029,0.154537 0.20143,0.318475 0.271174,0.497367 0.09544,0.25544 0.207817,0.504146 0.34455,0.738784 0.178797,0.293166 0.373087,0.578308 0.63186,0.802381 0,0 -1.891045,1.221927 -1.891045,1.221927 z"/>
  <path d="m 83.790565,53.333527 c -0.332396,-0.145549 -0.689851,-0.160605 -1.044512,-0.138209 -0.582187,0.04863 -1.112293,0.30514 -1.61958,0.587692 -1.043775,0.642572 0.573836,-0.356519 1.209871,-0.699174 0.125668,-0.0677 -0.232385,0.168205 -0.344571,0.257894 -0.370973,0.296595 -0.693637,0.630569 -1.014428,0.983061 -0.554341,0.663621 -1.020755,1.423192 -1.262171,2.272152 -0.04969,0.174763 -0.07967,0.35494 -0.119499,0.532409 -0.137552,0.93005 -0.03873,1.884225 0.382473,2.727144 0.08682,0.17375 0.195907,0.334483 0.293858,0.501725 0.650938,0.918692 1.578435,1.519741 2.610226,1.879533 0.236462,0.08246 0.479501,0.142962 0.719253,0.214444 1.323349,0.300953 2.692001,0.342309 4.034079,0.156244 0.266922,-0.03701 0.530938,-0.0939 0.796409,-0.140844 0.735462,-0.16623 1.462943,-0.396006 2.143125,-0.735357 0.203173,-0.101367 0.791752,-0.447945 0.593165,-0.337204 -1.47505,0.82255 -1.708164,1.097772 -0.88842,0.344136 0.67316,-0.78094 0.9112,-1.634627 0.737732,-2.670701 -0.03661,-0.218667 -0.101384,-0.431221 -0.152079,-0.646833 -0.399646,-1.209059 -1.108844,-2.2751 -2.029534,-3.12206 -0.193201,-0.177729 -0.404288,-0.333303 -0.606433,-0.499953 -1.078979,-0.77282 -2.321102,-1.190155 -3.636806,-1.13196 -0.264936,0.01173 -0.527568,0.05635 -0.791352,0.08452 -1.034089,0.231057 -0.524853,0.08903 -1.527855,0.42552 0,0 1.69588,-1.362391 1.69588,-1.362391 v 0 c 1.020627,-0.31224 0.502659,-0.182822 1.554107,-0.387374 0.26926,-0.02112 0.537779,-0.05938 0.807781,-0.06336 1.350577,-0.01991 2.61763,0.445273 3.714458,1.250107 0.206229,0.173259 0.42134,0.335695 0.61869,0.519778 0.943475,0.88005 1.67414,1.977917 2.100758,3.219008 0.05669,0.223674 0.126892,0.444108 0.170016,0.671017 0.198306,1.043476 0.0074,2.033221 -0.649779,2.860267 -1.060107,1.078809 -0.378382,0.452523 -2.799206,1.914064 -0.850437,0.513441 -1.810261,0.799283 -2.766528,1.005138 -0.268018,0.04244 -0.534776,0.09458 -0.804053,0.127304 -1.363205,0.165629 -2.750103,0.107586 -4.087267,-0.2196 -0.244566,-0.0764 -0.49277,-0.141226 -0.733702,-0.229215 -1.069432,-0.390556 -2.023788,-1.035885 -2.698393,-1.992964 -0.103338,-0.175735 -0.217967,-0.344821 -0.310012,-0.527207 -0.443634,-0.879044 -0.567483,-1.87395 -0.448357,-2.850727 0.03587,-0.185357 0.06129,-0.37323 0.1076,-0.55607 0.220995,-0.872437 0.674264,-1.662518 1.220813,-2.354915 1.135005,-1.321093 2.258014,-1.998454 3.872932,-2.8435 0.534203,-0.270583 1.089245,-0.504528 1.692784,-0.517409 0.380225,0.002 0.754874,0.05212 1.108592,0.206278 0,0 -1.850065,1.2876 -1.850065,1.2876 z"/>
</svg>
