<svg viewBox="0 0 131.15775 135.69345" style="fill:#fff;stroke-width:0.26458335">
  <g transform="translate(-43.089287,-52.449406)">
    <rect
       id="rect42"
       width="96.383926"
       height="94.872025"
       x="60.854156"
       y="72.860115"
       style="fill:#000"
       ry="24.946428" />
  </g>
  <path d="m 65.033901,86.558437 c -0.924533,-0.170442 -1.871472,-0.08483 -2.804292,-0.04846 -1.608603,0.111086 -3.218963,0.19213 -4.827722,0.301117 -2.196275,0.156578 -4.393621,0.282295 -6.594364,0.353158 -1.918889,0.09892 -3.841081,0.09174 -5.761903,0.0919 -0.953741,-0.0078 -1.920161,0.03398 -2.864115,-0.129233 -0.296032,-0.05292 -0.611555,-0.11198 -0.782757,-0.381268 -0.04777,-0.08747 -0.06648,-0.183591 -0.07841,-0.281096 -0.0011,-0.0064 -0.006,-0.02495 -0.0029,-0.01923 0.102773,0.191924 0.07743,0.171429 -0.08799,0.172945 -0.219639,-1.96e-4 -0.43927,-7.7e-5 -0.658911,1.6e-5 -0.198832,1.96e-4 -0.397671,7.94e-4 -0.596498,0.0024 -0.931018,0.0058 -0.486307,0.234445 1.903177,-1.370131 0.0057,-0.01968 0.03524,-0.06878 0.0172,-0.05903 -0.6761,0.365696 -1.333426,0.76527 -2.007132,1.135361 -0.0191,0.0105 0.01895,-0.04226 0.03765,-0.05345 0.706057,-0.422698 1.417199,-0.836954 2.131666,-1.245269 0.02291,-0.0131 0.09202,-0.01347 0.120658,-0.01461 0.07027,0.01524 0.141356,0.02495 0.212466,0.03623 0.848834,0.160174 -2.027224,1.966013 -2.010143,1.030018 -0.01143,-0.39197 0.04006,-0.780151 0.07841,-1.169287 0.04194,-1.202814 -0.07173,-2.406039 -0.173313,-3.603447 -0.182745,-2.461385 -0.398158,-4.920007 -0.590264,-7.380661 -0.266544,-3.098128 -0.430477,-6.203233 -0.586621,-9.308413 -0.146093,-2.723253 -0.330555,-5.4439 -0.539052,-8.162991 -0.119456,-1.637379 -0.301696,-3.267911 -0.556164,-4.889614 -0.190612,-1.104241 -0.353931,-2.20989 -0.434978,-3.327752 -0.06484,-1.090358 -0.06994,-2.183135 -0.07507,-3.275063 0.01042,-0.849235 -0.069,-1.695757 -0.120602,-2.542587 -0.01651,-0.504476 -0.04698,-1.004724 -0.118182,-1.504379 -0.05223,-0.329321 -0.169468,-0.637744 -0.280299,-0.949669 -0.07613,-0.226118 -0.115282,-0.460486 -0.136189,-0.697344 -0.0067,-0.07735 -0.0096,-0.154953 -0.01474,-0.232399 -0.512787,-3.799893 1.754534,-1.371841 2.361162,-0.918287 0.409552,0.27041 0.88749,0.392359 1.362576,0.488619 1.078777,0.23114 2.186866,0.257297 3.285394,0.292717 1.876415,0.02551 3.75479,-0.02904 5.630191,-0.09502 2.336554,-0.09837 4.674799,-0.139438 7.013117,-0.163396 2.346876,-0.02204 4.693304,0.05761 7.039727,0.0962 2.22119,0.03439 4.442667,0.03802 6.664069,0.04138 1.81225,0.0094 3.624344,-0.05542 5.432179,-0.178538 0.96131,-0.06861 1.923356,-0.127172 2.886535,-0.161446 0.302443,-0.01217 0.6051,-0.01572 0.907749,-0.01725 0.449434,-0.688401 0.03501,-0.03652 -1.952255,1.071615 -0.02088,0.01164 0.03463,-0.0335 0.05494,-0.04612 0.05554,-0.0345 0.08925,-0.06588 0.138808,-0.112245 0.72549,-0.559998 1.307518,-0.808217 2.313768,-1.37464 0.0585,-0.03293 0.130836,-0.03344 0.191691,-0.06179 0.200977,-0.07531 0.380579,-0.184148 0.592561,-0.229965 0.01709,0.03498 0.308559,-0.144405 0.262302,-0.117788 -0.653452,0.375989 -2.616864,1.498635 -1.963819,1.121932 2.094386,-1.20813 1.414504,-0.887109 2.265254,-1.284492 0.09641,-0.04189 0.190232,-0.09102 0.289512,-0.126111 0.796354,0.122158 -1.222118,1.418688 -2.05645,1.450896 -0.901298,0.01423 1.198552,-1.355852 2.030444,-1.422945 -0.676106,0.474102 -1.347705,0.954699 -2.028322,1.422302 -0.01873,0.01286 -0.08657,0.01781 -0.06798,0.0047 2.037157,-1.430351 1.204439,-1.367724 2.069918,-1.425326 0.236858,0.557413 0.07295,0.06624 0.0302,0.451077 -0.02975,0.376034 -0.09508,0.747038 -0.125855,1.123598 -0.03511,0.937686 -0.0855,1.874396 -0.134297,2.811548 -0.07079,1.586799 -0.102079,3.1755 -0.08142,4.763712 0.03304,1.845029 0.166322,3.686831 0.320741,5.525137 0.180933,1.718295 0.322863,3.440317 0.499695,5.158989 0.118255,1.292429 0.267465,2.581987 0.373298,3.875527 0.09085,0.800325 0.05638,1.602036 0.0069,2.403139 -0.03565,0.525799 -0.05171,1.052531 -0.05884,1.579393 -0.0035,0.325567 -0.0034,0.651164 1.4e-4,0.976728 2.65e-4,0.13579 0.0048,0.271608 0.0042,0.407398 0.0011,0.112813 -1.35e-4,0.225623 -0.0013,0.338434 -0.0077,0.183541 -0.08176,0.355361 -0.122886,0.533294 -0.02877,0.149635 -0.03502,0.302024 -0.03687,0.453985 -0.0024,0.156586 -0.0019,0.313201 -0.0021,0.469802 0.01019,0.21463 -0.06388,0.419486 -0.107463,0.627253 -0.03727,0.182317 -0.04447,0.368009 -0.05079,0.553326 -0.0028,0.122637 -0.0026,0.245277 1.01e-4,0.367908 7.93e-4,0.01995 0.0011,0.04049 0.0013,0.06027 -7.026413,4.237935 4.701958,-2.622089 -2.37022,1.502212 5.028914,-2.393839 2.210334,-1.485575 1.745729,-0.967737 -0.02957,0.03296 -0.135152,0.189934 -0.154689,0.218442 -0.255646,0.377915 -0.488299,0.770557 -0.72499,1.160452 -0.511926,0.883116 -1.082879,1.731121 -1.691542,2.550007 -0.854581,1.162608 -1.88032,2.177941 -2.877759,3.214627 -0.818031,0.861158 -1.64908,1.709748 -2.447481,2.589247 -0.515194,0.563925 -0.946706,1.194652 -1.38901,1.81511 -0.26322,0.410636 -0.577495,0.782773 -0.88964,1.155996 -0.263467,0.277114 -0.549328,0.534353 -0.870146,0.74316 -0.765384,0.525885 -1.576337,0.994521 -2.422922,1.369179 -0.107053,0.04738 -0.196797,0.108235 -0.308104,0.147219 -1.213409,0.541764 2.559799,-1.528419 1.626775,-0.957998 -0.125998,0.0804 -0.141643,-0.147765 -0.195649,-0.253455 -1.958346,1.295837 -2.081345,1.849326 -2.050672,0.661376 0.04677,-0.503481 -0.01019,-0.997423 -0.08271,-1.494827 -0.189561,-1.10128 -0.345035,-2.207818 -0.510654,-3.312869 -0.17631,-1.176734 -0.450151,-2.336138 -0.77784,-3.479133 -0.27499,-0.907434 -0.598782,-1.799098 -0.910305,-2.694395 -0.275087,-0.677876 -0.473292,-1.377082 -0.661371,-2.082292 -0.09922,-0.375687 -0.174379,-0.754685 -0.297341,-1.123614 -0.02606,-0.129212 -0.102542,-0.212908 -0.179552,-0.313934 -0.02252,-0.02954 -0.04532,-0.05885 -0.06827,-0.08805 -0.488,-0.864466 1.373307,-1.247543 2.196669,-1.316252 -0.05499,-0.131654 0.107789,0.08868 0.137393,0.132053 0.01542,-0.0019 0.04919,-0.0067 0.05921,-0.0032 0.06074,0.02114 0.110823,0.06685 0.171248,0.08887 0.05016,0.01828 0.184759,0.04046 0.231418,0.04905 0.440452,0.129627 0.899742,0.180927 1.352923,0.248301 0.796021,0.08715 1.590813,0.177824 2.390066,0.231375 1.088949,0.07034 2.17832,0.06735 3.267721,0.01961 0.921372,-0.04861 1.843273,-0.08687 2.765669,-0.108837 0.414964,-0.0096 0.829979,-0.01564 1.245031,-0.019 0.940824,-0.0154 0.38972,-0.115252 -1.941949,1.410365 -0.02553,0.01672 -0.06213,-0.0068 -0.09155,0.0013 -0.02482,0.0069 -0.04329,0.0279 -0.06493,0.04185 -0.652912,0.491453 -1.213403,0.730305 1.875869,-1.061906 7.94e-4,-5.29e-4 -0.05023,0.09176 -0.111455,-0.01881 -0.0058,-0.03407 0.01336,-0.02861 0.03967,-0.03014 0,0 -1.998379,1.343078 -1.998379,1.343078 v 0 c -0.05798,-0.03683 -0.105736,-0.07616 -0.141952,-0.137059 -0.02278,-0.04793 -0.11121,-0.215006 -0.01921,-0.271704 0.341985,-0.210751 1.425096,-1.143471 2.264947,-1.280242 0.06187,0.0021 0.233659,-0.03508 0.185677,0.004 -1.663771,1.356273 -1.070652,1.430941 -1.936419,1.408774 -0.406289,-0.0024 -0.81262,-5.29e-4 -1.218859,0.0061 -0.914627,0.01889 -1.828729,0.05282 -2.742478,0.09732 -1.097888,0.04174 -2.196168,0.03663 -3.293139,-0.03313 -0.807421,-0.05773 -1.612633,-0.14083 -2.416508,-0.235326 -0.463159,-0.06876 -0.929093,-0.12533 -1.380742,-0.253524 -0.195617,-0.05548 -0.414604,-0.122859 -0.562184,-0.267991 0.0037,0.0081 0.06968,0.15625 -0.01762,0.051 -0.903658,-0.104325 1.575546,-1.180605 1.828493,-1.324477 0.02069,0.03005 0.04169,0.05989 0.06312,0.08943 0.08825,0.121635 0.183782,0.23341 0.210153,0.387131 0.117409,0.377155 0.198451,0.759619 0.286539,1.144548 0.180834,0.702325 0.361648,1.401315 0.638389,2.074502 0.30748,0.902034 0.633259,1.798302 0.904444,2.712318 0.325302,1.154547 0.604774,2.322949 0.783571,3.510034 0.165701,1.101201 0.322395,2.203845 0.540266,3.296338 0.08155,0.505521 0.165658,1.006557 0.123391,1.521048 -0.02564,1.172368 0.06056,0.63178 -2.003904,1.881491 -0.08154,-0.124915 -0.251007,-0.226094 -0.125423,-0.3283 0.763908,-0.574765 1.602375,-1.067771 2.49432,-1.408689 0.101444,-0.05265 0.204073,-0.09708 0.308091,-0.144129 0.03655,-0.01654 0.142934,-0.07275 0.108326,-0.05246 -1.416865,0.830794 -2.6055,1.502674 -1.794026,1.043551 0.3511,-0.25721 -0.103521,0.06658 0.284787,-0.178687 0.226536,-0.143084 0.392462,-0.360299 0.615918,-0.50791 0.313719,-0.372422 0.644615,-0.732229 0.906426,-1.144497 0.456885,-0.622898 0.882258,-1.27091 1.398886,-1.847795 0.80391,-0.886343 1.64246,-1.739304 2.468298,-2.605167 0.99127,-1.033512 2.027881,-2.030206 2.881527,-3.185797 0.608849,-0.798828 1.165662,-1.638922 1.666558,-2.509729 0.224361,-0.395153 0.465444,-0.780487 0.699024,-1.169567 0.07614,-0.106866 0.130778,-0.220263 0.201088,-0.329108 0.482897,-0.747543 3.505132,0.885153 2.269969,-1.387467 -6.584241,3.843714 4.916811,-2.941595 -1.641686,1.109115 -5.3e-4,-0.02214 -7.94e-4,-0.04447 -1.9e-5,-0.06668 0.0013,-0.125463 0.0011,-0.250923 0.0021,-0.376381 0.0021,-0.196273 0.0081,-0.393842 0.03711,-0.588134 0.03015,-0.199734 0.0952,-0.393361 0.124603,-0.587766 -0.0011,-0.157306 -0.0021,-0.314603 -0.0026,-0.471911 0.0028,-0.163034 0.0019,-0.326795 0.02275,-0.488786 0.02077,-0.170236 0.05659,-0.345178 0.140396,-0.496224 -0.0013,-0.11218 -0.0026,-0.224358 -0.0016,-0.336542 -0.0011,-0.136998 0.0028,-0.274037 0.0028,-0.411038 0.0029,-0.328634 0.0034,-0.657294 0.0087,-0.985906 0.0104,-0.532112 0.02692,-1.064173 0.06407,-1.595192 0.05584,-0.794504 0.116372,-1.58936 0.03149,-2.38502 -0.09226,-1.296702 -0.232362,-2.589231 -0.344024,-3.884308 -0.171569,-1.722361 -0.302308,-3.448529 -0.488022,-5.169536 -0.154675,-1.842471 -0.289361,-3.688058 -0.331771,-5.536972 -0.03078,-1.587468 -0.0037,-3.175686 0.04708,-4.762569 0.03789,-0.932709 0.08528,-1.864477 0.09533,-2.797974 0.02114,-0.372404 0.06423,-0.741844 0.108212,-1.109906 -1.16e-4,-0.207373 -0.07709,-0.645541 0.171485,-0.109757 -0.01236,-1.59e-4 -0.04681,0.0071 -0.03707,-5.29e-4 0.614291,-0.478642 1.237737,-0.94542 1.857023,-1.417582 0.0159,-0.01212 0.07574,-0.01127 0.05998,0.0011 -0.613601,0.479279 -1.237769,0.944877 -1.856656,1.417317 -0.851667,-0.02802 1.121693,-1.407969 1.858867,-1.416402 0.880584,0.0046 -1.587981,0.894633 -1.77819,1.458672 -0.08992,0.0447 -0.182671,0.08366 -0.271537,0.130554 -0.763645,0.397779 -0.131349,0.07024 1.847554,-1.072478 -1.042167,0.54261 -1.5167,1.068387 -2.43441,1.323094 -0.194413,0.08116 -0.383556,0.173786 -0.581896,0.245779 -0.06164,0.02096 -0.235698,0.109741 -0.179644,0.07663 3.29242,-1.944508 2.413932,-1.56791 1.794738,-1.012426 -0.119587,0.07057 -0.06133,0.04968 -0.135239,0.125807 -0.01662,0.01712 -0.04299,0.02085 -0.06365,0.0328 -2.170485,1.254588 -1.327761,1.378141 -2.220862,1.228961 -0.293854,-0.0024 -0.587719,0.0019 -0.881507,0.0079 -0.94778,0.02588 -1.894562,0.07603 -2.840712,0.136946 -1.800974,0.103725 -3.605102,0.158274 -5.40924,0.143293 -2.219746,-0.0051 -4.43956,-0.01458 -6.659073,-0.04925 -2.343216,-0.04102 -4.686515,-0.121724 -7.030276,-0.09521 -2.341181,0.02741 -4.682199,0.07243 -7.021433,0.176422 -1.890078,0.06834 -3.78279,0.133646 -5.674101,0.1079 -1.119627,-0.03369 -2.247538,-0.06438 -3.346638,-0.301877 -0.506579,-0.116869 -1.01968,-0.25695 -1.445345,-0.568968 -0.825788,-0.726249 0.13543,-0.383635 1.820514,-1.441209 -0.0093,0.07134 -0.0052,0.143753 -0.0043,0.215522 0.0093,0.217908 0.03458,0.434549 0.100213,0.643641 0.111409,0.328467 0.236355,0.650378 0.295738,0.994601 0.06915,0.508473 0.113226,1.015394 0.112925,1.529394 0.04256,0.853935 0.11816,1.707492 0.107921,2.562972 0.0016,1.087715 0.0024,2.1762 0.06433,3.262537 0.07844,1.113369 0.234728,2.215073 0.416952,3.31597 0.243578,1.636422 0.407418,3.281598 0.513797,4.932704 0.181252,2.729709 0.347461,5.460251 0.493067,8.192127 0.156188,3.100552 0.31764,6.201178 0.601366,9.293366 0.200414,2.450645 0.428066,4.898615 0.647221,7.347638 0.121896,1.200026 0.247888,2.403755 0.250637,3.611147 -0.02844,0.381434 -0.0836,0.760431 -0.064,1.143455 -0.01347,0.876409 -1.226733,1.464231 -2.093659,1.451256 -0.05641,-0.0026 -0.114162,-0.0085 -0.162253,0.02719 -0.703757,0.361405 -1.569567,0.913122 1.879682,-1.126035 0.0173,-0.01024 -0.03025,0.02679 -0.04745,0.03717 -2.130335,1.286661 -1.360157,1.595014 -2.194404,1.232728 1.78757,-1.339194 1.118307,-1.422003 2.01726,-1.408552 0.196848,0.0016 0.393713,0.0019 0.590563,0.0016 0.221676,-7.94e-4 0.443342,-0.0019 0.665012,-0.0039 0.177737,0.0016 0.22946,0.01797 0.308208,0.19494 -0.02822,0.03856 -0.02196,0.0886 -0.0081,0.133522 0.127106,0.188301 0.46949,0.160364 0.653132,0.225959 0.924896,0.135649 1.862235,0.126156 2.794796,0.133879 1.908487,0.01326 3.818194,0.02019 5.724978,-0.07532 2.203616,-0.07418 4.403664,-0.20389 6.602328,-0.369184 1.622324,-0.113612 3.245583,-0.212865 4.868148,-0.322879 0.957969,-0.04151 1.926188,-0.108503 2.875735,0.06673 0,0 -1.95961,1.365467 -1.95961,1.365467 z"/>
  <path d="m 87.408532,43.593992 c 0.22806,0.97029 0.304665,1.964425 0.363524,2.956491 0.04208,1.309267 0.08946,2.618436 0.165187,3.926292 0.08524,1.541042 0.259842,3.07544 0.411009,4.611061 0.159928,1.572683 0.209971,3.153198 0.298268,4.7308 0.094,1.388494 0.225213,2.773903 0.336989,4.160933 0.124095,1.170152 0.210894,2.342994 0.260168,3.518557 0.03583,1.00208 0.03787,2.004919 0.03959,3.007505 0.02252,0.869432 -0.0091,1.736119 -0.06622,2.603365 -0.08646,0.733396 -0.168637,1.466371 -0.212883,2.20368 -0.03538,0.629116 -0.04747,1.257631 0.0045,1.885715 0.05054,0.55635 0.157668,1.105178 0.223242,1.660051 0.0531,0.427557 0.06286,0.852761 0.0026,1.279145 -0.04227,0.244755 -0.06885,0.491524 -0.08513,0.739227 -0.0104,0.196035 -0.009,0.392438 -0.01011,0.588682 -0.0016,0.22166 0.0074,0.443616 -0.0099,0.664694 -0.03868,0.204505 -0.0948,0.404823 -0.1241,0.611082 -0.02138,0.160086 -0.02439,0.321902 -0.02516,0.483185 -0.0011,0.144589 -7.94e-4,0.289186 0.0016,0.43376 -5.3e-4,0.07807 2.64e-4,0.156139 0.0021,0.234185 -0.0011,0.08501 -0.0011,0.170032 -0.0021,0.255051 0.01588,0.166534 -0.05573,0.314351 -0.105315,0.468434 -0.03358,0.120465 -0.04543,0.244189 -0.05352,0.368393 -0.0038,0.107307 -0.0021,0.214675 -0.0026,0.322013 1.9e-5,0.154941 -0.0013,0.309873 -5.29e-4,0.464815 -5.29e-4,0.151315 0.0016,0.302612 5.29e-4,0.453927 0.0011,0.146236 1.03e-4,0.292473 -7.94e-4,0.438711 2.62e-4,0.19499 0.0099,0.389276 -0.03085,0.580877 -0.04044,0.140391 -0.08673,0.279358 -0.11035,0.423762 -0.0057,0.03646 -0.0084,0.07438 -0.01572,0.110133 -0.444494,-0.683834 -0.323405,0.204171 -2.157759,1.109591 -0.04617,0.02278 -0.03466,-0.108281 -0.08233,-0.04814 -0.121629,0.03636 -0.25904,0.02461 -0.386204,0.02752 -0.230749,0.0019 -0.461516,0.0011 -0.692272,0.0011 -0.353282,-0.01834 -0.697471,0.007 -1.046295,0.05634 -0.583647,0.106936 -1.145408,0.291494 -1.705472,0.483542 -0.760593,0.23147 -1.517135,0.474019 -2.289218,0.664921 -0.845111,0.244711 -1.720276,0.31695 -2.594594,0.359601 -1.067716,0.03801 -2.136381,0.03339 -3.204607,0.03397 -1.175176,-0.02043 -2.348352,0.0013 -3.52017,0.09278 -1.185011,0.125783 -2.365457,0.29155 -3.550555,0.41552 -0.933336,0.111199 -1.864254,0.243102 -2.79835,0.347504 -0.722924,0.046 -1.439815,0.149664 -2.160826,0.215982 -0.514768,0.04614 -1.031713,0.05705 -1.548243,0.06032 -0.428226,0.01172 -0.849215,0.0136 -1.271612,-0.05753 -0.296839,-0.06258 -0.599628,-0.08323 -0.902031,-0.09508 -0.315116,-0.0088 -0.63038,-0.0063 -0.945575,-0.0072 -0.357511,-0.0077 -0.702408,0.102878 -1.046129,0.185431 -0.373507,0.05393 -0.737221,0.144615 -1.106577,0.219202 -0.254127,0.05899 -0.515115,0.07305 -0.774867,0.08256 -0.180758,0.0028 -0.361529,0.0013 -0.542292,-1.64e-4 -0.19625,-5.29e-4 -0.392494,-0.0016 -0.588746,-7.94e-4 -0.22384,-0.0127 -0.378457,-0.0065 -0.588322,0.07002 -0.136475,0.03482 -0.272685,0.07066 -0.408866,0.106609 -0.01413,0.0079 -0.03624,0.0076 -0.04934,0.0095 -0.06592,-0.04789 -0.173408,-0.02402 -0.255027,-0.02445 -0.0396,0.01355 -0.08714,-0.01577 -0.126259,-2.52e-4 -0.03965,0.01572 -0.130714,0.10827 -0.09357,0.0873 1.808427,-1.021017 2.620317,-1.545447 1.930149,-1.100646 -0.106582,0.0589 -0.195088,-0.171693 -0.189402,-0.272817 -0.10501,-0.236082 -1.31617,1.299821 -2.110512,1.452732 4.066505,-2.489589 1.701125,-1.849498 2.093264,-1.055378 0,0 -2.157003,1.077958 -2.157003,1.077958 v 0 c 0.04026,0.06745 -0.0073,-0.06167 0.0016,-0.06991 0.668734,-0.459716 1.337469,-0.919433 2.006203,-1.379149 0.02972,0.01167 0.06578,0.0099 0.09904,0.01151 -0.606462,0.486304 -1.212925,0.972608 -1.819387,1.458909 -0.0032,-0.0026 -0.0064,-0.0051 -0.0096,-0.0077 -0.110019,-0.05119 -0.251219,-0.23523 -0.150548,-0.332343 0.745472,-0.587129 1.519423,-1.346644 2.471291,-1.283827 0.05494,-2.64e-4 0.224229,0.02424 0.229388,-0.02156 0.0045,-0.0019 0.03028,-0.01569 0.04166,-0.01357 0.133943,-0.03312 0.267695,-0.06703 0.401008,-0.102603 0.206967,-0.03559 0.417245,-0.01677 0.626517,-0.02122 0.196181,0.0011 0.392364,5.29e-4 0.588545,0.0016 0.178215,-5.29e-4 0.3566,7.93e-4 0.534585,-0.0098 0.250923,-0.01598 0.499748,-0.05044 0.744797,-0.107759 0.365718,-0.08151 0.73533,-0.139261 1.100256,-0.224036 0.354169,-0.08928 0.716291,-0.153702 1.083173,-0.140973 0.318579,-5.29e-4 0.637331,7.94e-4 0.955611,0.01601 0.305835,0.02141 0.609743,0.05827 0.911035,0.115996 0.412509,0.05296 0.82831,0.03001 1.243309,0.03115 0.510688,-0.0082 1.021649,-0.02225 1.530302,-0.07191 0.715841,-0.0708 1.430256,-0.154631 2.147401,-0.211799 0.929516,-0.110419 1.857994,-0.229087 2.787796,-0.337315 1.18315,-0.129908 2.363417,-0.285615 3.547887,-0.403876 1.178124,-0.08173 2.357232,-0.10052 3.538035,-0.08461 1.067446,-2.64e-4 2.135577,0.0021 3.202088,-0.04863 0.869879,-0.057 1.736117,-0.154919 2.575701,-0.402347 0.767358,-0.202324 1.524619,-0.439452 2.280417,-0.681021 0.572397,-0.191604 1.150522,-0.370642 1.74961,-0.458174 0.355764,-0.04227 0.712354,-0.0374 1.070229,-0.03629 0.232405,-0.0013 0.464805,-0.0031 0.69717,-0.0078 0.152389,-5.29e-4 0.314322,-0.01535 0.452278,0.06044 0.747022,0.665263 -1.103566,1.951387 -1.917477,1.357101 -0.0043,-0.04671 0.0027,-0.09346 0.0074,-0.139999 0.01876,-0.156419 0.04641,-0.308565 0.09884,-0.457936 0.06882,-0.170854 0.0704,-0.334221 0.06071,-0.518385 -7.93e-4,-0.14601 -0.0019,-0.292018 -7.93e-4,-0.438025 -7.94e-4,-0.151466 0.0011,-0.302914 5.29e-4,-0.454377 5.29e-4,-0.154258 -7.94e-4,-0.308502 -0.0019,-0.462751 -0.0013,-0.109789 -0.0013,-0.219599 -5.3e-4,-0.329391 -2.48e-4,-0.138467 0.0071,-0.277421 0.03443,-0.413435 0.01418,-0.08404 0.03193,-0.171333 0.06368,-0.251005 0.01511,-0.03793 0.05227,-0.06531 0.06402,-0.104407 0.0059,-0.01966 8e-6,-0.04104 1.4e-5,-0.06156 -0.0011,-0.08419 -0.0011,-0.168378 -0.0021,-0.252561 0.0016,-0.07846 0.0024,-0.156953 0.0013,-0.235431 0.0016,-0.145643 0.0011,-0.291285 2.51e-4,-0.436933 0.0011,-0.170021 1.11e-4,-0.340164 0.01315,-0.509828 0.02397,-0.210625 0.06108,-0.418148 0.122478,-0.621523 0.06032,-0.202144 0.01373,-0.418951 0.02687,-0.627774 -0.0013,-0.200027 -7.94e-4,-0.400055 0.0043,-0.600035 0.01027,-0.256321 0.03778,-0.511704 0.08002,-0.764752 0.07238,-0.409273 0.09584,-0.812482 0.03593,-1.227172 -0.05701,-0.558623 -0.164899,-1.109117 -0.221112,-1.667338 -0.05821,-0.639305 -0.05192,-1.278014 -0.01474,-1.9191 0.0418,-0.739084 0.115419,-1.475181 0.217006,-2.208545 0.06214,-0.863825 0.105754,-1.726669 0.08293,-2.593325 -5.29e-4,-1.000948 -5.29e-4,-2.002094 -0.02957,-3.002716 -0.04169,-1.174525 -0.120079,-2.346743 -0.246015,-3.51549 -0.105608,-1.391425 -0.231936,-2.781144 -0.324265,-4.17363 -0.08454,-1.574604 -0.137674,-3.151788 -0.293987,-4.721516 -0.153471,-1.537317 -0.323358,-3.073991 -0.420362,-4.616046 -0.08436,-1.30493 -0.139668,-2.611572 -0.181898,-3.918468 -0.05533,-0.971418 -0.122595,-1.950072 -0.377204,-2.893521 0,0 2.096077,-1.139288 2.096077,-1.139288 z"/>
  <path d="m 93.313672,48.786411 c -0.02474,0.916993 -0.01696,1.833353 0.02802,2.749428 0.04819,1.105186 0.16969,2.205382 0.305385,3.302722 0.19558,1.238097 0.328901,2.484584 0.482473,3.72825 0.128243,1.160137 0.303073,2.313204 0.499403,3.463414 0.169467,0.940599 0.366377,1.875324 0.576227,2.807642 0.227347,0.872247 0.399077,1.757397 0.522957,2.649916 0.107867,0.865283 0.216367,1.727155 0.218497,2.599957 -0.0105,0.647676 -0.0341,1.295022 -0.0491,1.942611 -0.009,0.468889 -0.0109,0.937879 -0.0113,1.406845 -1.3e-4,0.492009 -0.003,0.984017 -0.002,1.476026 -0.006,0.526984 0.015,1.054544 -0.0152,1.580851 -0.0513,0.499861 -0.0893,1.000643 -0.164327,1.497629 -0.11157,0.490908 -0.20207,0.985845 -0.29927,1.479722 -0.0988,0.524544 -0.207217,1.04566 -0.266817,1.576475 -0.0508,0.515519 -0.055,1.033907 -0.0593,1.551419 -10e-4,0.479541 5.2e-4,0.959082 0.002,1.438621 -0.0232,0.417708 0.045,0.829069 0.0923,1.242206 0.0438,0.394552 0.0618,0.79121 0.0682,1.187934 0.0129,0.365659 -0.0119,0.732785 0.0182,1.097574 0.0681,0.434578 0.10222,0.872437 0.12243,1.311531 0.0175,0.474073 0.0193,0.948455 0.0237,1.422758 0.003,0.327638 7.9e-4,0.655301 0.003,0.982943 5.3e-4,0.213383 0.002,0.426751 0.002,0.640138 7.9e-4,0.126373 0.002,0.252714 0.003,0.379082 2.7e-4,0.04418 10e-4,0.08837 0.002,0.132537 0.0363,0.852213 -1.364836,1.246312 -2.200744,1.254898 -0.05266,0.0019 -0.105553,0.0026 -0.157679,0.01064 -0.08674,-0.007 -0.174511,-0.0054 -0.261609,-0.0055 -0.07624,0.01596 -0.168643,-0.02178 -0.243499,-5.29e-4 -0.07135,0.02016 -0.137623,0.07272 -0.244438,0.09796 -0.291407,0.06718 -0.576903,0.181567 -0.853556,0.297907 -0.409983,0.157472 -0.832062,0.268094 -1.266153,0.332542 -0.50663,0.101626 -1.012574,0.210941 -1.52349,0.290084 -0.605456,0.109505 -1.202174,0.258328 -1.802725,0.390757 -0.677577,0.161566 -1.3531,0.334176 -2.036122,0.472386 -0.754483,0.17115 -1.518899,0.304087 -2.285818,0.406427 -0.703212,0.0583 -1.404514,0.12761 -2.106938,0.19529 -0.594907,0.047 -1.189066,0.0712 -1.782625,0.133357 -0.639241,0.0679 -1.281919,0.0884 -1.924195,0.10117 -0.606772,0.0101 -1.213628,0.01 -1.820461,0.009 -0.575662,0.0389 -1.14773,0.13808 -1.70969,0.2675 -0.520316,0.12018 -1.052197,0.175147 -1.579623,0.255457 -0.509672,0.0798 -1.025467,0.10337 -1.540454,0.11569 -0.475555,0.008 -0.951162,0.008 -1.426758,0.008 -0.465143,-0.001 -0.930288,-0.002 -1.395431,-0.002 -0.482502,0.0283 -0.957599,-0.0304 -1.435643,-0.0841 -0.460819,-0.0498 -0.924105,-0.0652 -1.38721,-0.0732 -0.40822,-0.006 -0.81648,-0.003 -1.224725,-0.004 -0.405156,0.0383 -0.796425,0.14419 -1.193675,0.22524 -0.354428,0.12073 -0.72086,0.19956 -1.092891,0.238317 -0.24588,0.0297 -0.480952,0.11541 -0.725577,0.1619 -0.20111,-0.0494 -0.401648,-0.10077 -0.607878,-0.12291 -0.177387,-0.0183 -0.356148,-0.016 -0.534257,-0.0169 -0.202544,-8e-4 -0.405096,-2.7e-4 -0.607621,0.002 -0.04305,5.3e-4 -0.0861,10e-4 -0.129109,0.003 -0.117094,0.818867 1.359757,-0.942404 2.038901,-1.414671 0,0 -1.941971,1.410871 -1.941971,1.410871 v 0 c 0.616289,-0.472597 1.23258,-0.945194 1.848872,-1.417791 0.0013,0.001 0.0016,0.004 0.0039,0.003 0.04131,0.001 0.08265,0.002 0.123973,0.002 0.201668,0.002 0.403342,0.002 0.60501,0.003 0.18556,0.003 0.371467,0.009 0.554601,0.042 0.18198,0.0332 0.374369,0.10137 0.55772,0.0555 0.242237,-0.055 0.480447,-0.12996 0.730404,-0.14308 0.365265,-0.0581 0.719867,-0.15879 1.077798,-0.250187 0.40322,-0.0879 0.808337,-0.17901 1.223145,-0.18543 0.409049,-7.9e-4 0.818182,-1.4e-4 1.227141,0.009 0.466524,0.014 0.932767,0.0376 1.396592,0.0921 0.472953,0.0524 0.944981,0.0782 1.421154,0.062 0.465622,5.3e-4 0.931241,5.3e-4 1.396862,7.9e-4 0.473155,5.3e-4 0.946444,0.002 1.419453,-0.0116 0.50905,-0.0194 1.01791,-0.0525 1.520915,-0.13746 0.524796,-0.0823 1.05432,-0.13727 1.570905,-0.26576 0.573339,-0.112527 1.151097,-0.219625 1.73731,-0.225829 0.605081,-5.29e-4 1.210236,-7.2e-5 1.815227,-0.01199 0.639398,-0.01688 1.27871,-0.04538 1.914668,-0.117292 0.592706,-0.05875 1.187881,-0.0723 1.780678,-0.130863 0.698545,-0.07011 1.398532,-0.1206 2.096053,-0.199324 0.763743,-0.112049 1.524928,-0.24715 2.277226,-0.420664 0.68148,-0.151217 1.359718,-0.316677 2.038792,-0.478232 0.602774,-0.138969 1.20591,-0.276997 1.815412,-0.383899 0.509458,-0.09248 1.017154,-0.194707 1.525403,-0.293556 0.424822,-0.0861 0.83953,-0.210896 1.241509,-0.374017 0.289195,-0.105839 0.575673,-0.219983 0.877787,-0.28447 0.17571,-0.05512 0.34607,-0.05469 0.529507,-0.04836 0.0867,-2.64e-4 0.17455,0.0021 0.26059,-0.0077 0.0546,0.0035 0.10933,0.0036 0.16392,0.0072 0.871301,0.059 -1.901543,2.035495 -1.896817,1.247791 0.0011,-0.0449 0.0019,-0.08982 0.0021,-0.134736 5.3e-4,-0.127344 0.0021,-0.254664 0.0028,-0.382014 -7.94e-4,-0.214108 0.0011,-0.428199 0.0021,-0.642307 0.0028,-0.328573 0.0016,-0.657175 0.0043,-0.985753 0.0026,-0.47202 7.94e-4,-0.944235 -0.01447,-1.416045 -0.01868,-0.433126 -0.04632,-0.866121 -0.122922,-1.293566 -0.0503,-0.370346 -0.01164,-0.745729 -0.02627,-1.118669 -0.0065,-0.390002 -0.01492,-0.780415 -0.05548,-1.168694 -0.04696,-0.421481 -0.129503,-0.840322 -0.103177,-1.266373 6.6e-5,-0.480703 -0.0011,-0.961408 7.94e-4,-1.442109 0.0021,-0.524605 0.0051,-1.049866 0.04892,-1.573008 0.0549,-0.537599 0.154104,-1.064898 0.256641,-1.594946 0.09751,-0.490863 0.173916,-0.985888 0.303072,-1.469967 0.07589,-0.492307 0.121208,-0.986208 0.174114,-1.481648 0.04682,-0.520149 0.01289,-1.043464 0.02291,-1.565211 2.65e-4,-0.491435 -0.003,-0.982861 -0.0024,-1.474296 0.0013,-0.471376 0.0024,-0.942808 0.01381,-1.414073 0.01622,-0.64879 0.04844,-1.297043 0.06642,-1.945783 0.007,-0.864463 -0.09049,-1.716376 -0.198657,-2.573409 -0.11914,-0.886426 -0.288534,-1.766028 -0.513784,-2.631872 -0.211416,-0.937225 -0.407318,-1.87748 -0.572987,-2.823969 -0.192125,-1.155406 -0.371817,-2.312345 -0.493745,-3.477789 -0.156046,-1.242431 -0.285072,-2.488716 -0.488129,-3.724781 -0.142259,-1.100754 -0.267367,-2.205257 -0.320903,-3.314292 -0.04943,-0.914858 -0.05847,-1.82883 -0.06354,-2.744918 0,0 2.124453,-1.082463 2.124453,-1.082463 z"/>
</svg>
